/* XPM */
static const char *quercus64[] = {
/* columns rows colors chars-per-pixel */
"64 64 229 2 ",
"   c #DA3406",
".  c #DE3A05",
"X  c #D73100",
"o  c #E03D07",
"O  c #B56619",
"+  c #916A2C",
"@  c #BB7D2D",
"#  c #BA7F27",
"$  c #AD7D35",
"%  c #A97A3D",
"&  c #A97E2E",
"*  c #DF4309",
"=  c #E34305",
"-  c #E54C07",
";  c #E94D03",
":  c #E34508",
">  c #E54B08",
",  c #E94F09",
"<  c #E75007",
"1  c #EC5405",
"2  c #EE5B06",
"3  c #EB5408",
"4  c #E25C0C",
"5  c #ED5A09",
"6  c #E55109",
"7  c #F35D05",
"8  c #F05D08",
"9  c #D86818",
"0  c #DD741D",
"q  c #C36A1F",
"w  c #EE6106",
"e  c #EF630A",
"r  c #EF690C",
"t  c #E5610F",
"y  c #F46406",
"u  c #F96606",
"i  c #F56B04",
"p  c #F96B06",
"a  c #F26409",
"s  c #F36C0A",
"d  c #F86D09",
"f  c #F67204",
"g  c #F97200",
"h  c #F4730D",
"j  c #F9750D",
"k  c #F6790D",
"l  c #FB7B0C",
"z  c #E46B15",
"x  c #EB6C14",
"c  c #E66714",
"v  c #F16E12",
"b  c #ED7316",
"n  c #E3731A",
"m  c #EC741A",
"M  c #EB7A1E",
"N  c #E47016",
"B  c #F37512",
"V  c #F67B14",
"C  c #F97D15",
"Z  c #F2761A",
"A  c #FC741A",
"S  c #F47D1B",
"D  c #FB7C1A",
"F  c #FF7413",
"G  c #D6532C",
"H  c #CA7A27",
"J  c #DC7423",
"K  c #DC7923",
"L  c #DB7A29",
"P  c #D97428",
"I  c #CB702D",
"U  c #E37421",
"Y  c #E47C23",
"T  c #EB7C22",
"R  c #EB7629",
"E  c #F17622",
"W  c #F27C21",
"Q  c #FB7C22",
"!  c #E67635",
"~  c #E96F25",
"^  c #A37D47",
"/  c #D96E4B",
"(  c #B98239",
")  c #B28028",
"_  c #EB8716",
"`  c #F58116",
"'  c #FA8215",
"]  c #F6831C",
"[  c #FA831B",
"{  c #F5891E",
"}  c #F8891D",
"|  c #F48E16",
" . c #EE9110",
".. c #E49717",
"X. c #F29B18",
"o. c #F59A17",
"O. c #F6890F",
"+. c #F3A212",
"@. c #F8A316",
"#. c #DD822D",
"$. c #D3862E",
"%. c #C78839",
"&. c #DA8531",
"*. c #D99236",
"=. c #E58227",
"-. c #ED8124",
";. c #E5832C",
":. c #EC842B",
">. c #EE892E",
",. c #F48423",
"<. c #FB8522",
"1. c #F68B24",
"2. c #F98C24",
"3. c #F2852A",
"4. c #FB842D",
"5. c #F58B2B",
"6. c #FA8D2A",
"7. c #E69627",
"8. c #FA9324",
"9. c #F7922D",
"0. c #FA922C",
"q. c #FF9B2E",
"w. c #F69C23",
"e. c #E38532",
"r. c #EC8C34",
"t. c #E68B3A",
"y. c #ED8A39",
"u. c #F28630",
"i. c #F38D33",
"p. c #FD8E32",
"a. c #F18838",
"s. c #EB913E",
"d. c #E99C39",
"f. c #F49136",
"g. c #F69334",
"h. c #F99533",
"j. c #F79837",
"k. c #FD9B35",
"l. c #F5953A",
"z. c #F5973D",
"x. c #F4943A",
"c. c #FA9539",
"v. c #F69A3C",
"b. c #FA9A3C",
"n. c #DEA03F",
"m. c #EBA121",
"M. c #FCA22A",
"N. c #FEA337",
"B. c #CF8F43",
"V. c #D18D4D",
"C. c #D39344",
"Z. c #D28D59",
"A. c #ED9444",
"S. c #ED954A",
"D. c #EE9B4B",
"F. c #F29545",
"G. c #F59D46",
"H. c #F59B43",
"J. c #F99D41",
"K. c #F39D4A",
"L. c #EC8E52",
"P. c #ED995A",
"I. c #EC8843",
"U. c #EBA24A",
"Y. c #F7A046",
"T. c #FDA443",
"R. c #FFA945",
"E. c #F5A24E",
"W. c #F6A34C",
"Q. c #FAA34A",
"!. c #FEAA4E",
"~. c #F6A552",
"^. c #F7A854",
"/. c #FDAC54",
"(. c #FBAE5C",
"). c #F5A759",
"_. c #FFB153",
"`. c #FFB358",
"'. c #E59868",
"]. c #E69F70",
"[. c #EFA163",
"{. c #F4AC65",
"}. c #F3AD6C",
"|. c #F2A663",
" X c #FAB364",
".X c #EDA875",
"XX c #F1AD75",
"oX c #EBB17F",
"OX c #F5B772",
"+X c #F2B879",
"@X c #F1BB88",
"#X c #E8BB97",
"$X c #EAB387",
"%X c #F4C288",
"&X c #EFC49B",
"*X c #F3C493",
"=X c #F3C99B",
"-X c #EBC9A7",
";X c #F3CDA3",
":X c #F2CDA9",
">X c #EFD1AE",
",X c #EED5B6",
"<X c #F3DBBB",
"1X c #F3D8B5",
"2X c #F3D6AE",
"3X c #EDDEC4",
"4X c #E8DDC8",
"5X c #F3DEC3",
"6X c #EFE0C7",
"7X c #E7E1CC",
"8X c #EEE3CB",
"9X c #F5E2C5",
"0X c #F4E5CB",
"qX c #F8E7CE",
"wX c #F6E8CF",
"eX c #F9E8CE",
"rX c #ECE6D1",
"tX c #EFEAD4",
"yX c #EAE8D5",
"uX c #F3E7D1",
"iX c #F4EAD4",
"pX c #F9EAD2",
"aX c #F4EDDA",
"sX c #F8EED9",
"dX c #F6F0DE",
"fX c #F8F1DC",
"gX c #E8F3E6",
"hX c None",
"jX c black",
/* pixels */
"hXhXhXhXhXhXhXhXhXhXhXhXhXhXhXhXhXhXhXhXhXhXhXhXhXhXhXhXhXhXhXhXhXhXhXhXhXhXhXhXhXhXhXhXhXhXhXhXhXhXhXhXhXhXhXhXhXhXhXhXhXhXhXhX",
"hXhXhXhXhXhXhXhXhXhXhXhXhXhXhXhXhXhXhXhXhXhXhXhXhXhXhXhXhXhXhXhXhXhXhXhXhXhXhXhXhXhXhXhXhXhXhXhXhXhXhXhXhXhXhXhXhXhXhXhXhXhXhXhX",
"hXhXhXhXhXhXhXhXhXhXhXhXhXhXhXhXhXhXhXhXhXhXhXhXhXhXhXhXhXhXhXhXhXhXhXhXhXhXhXhXhXhXhXhXhXhXhXhXhXhXhXhXhXhXhXhXhXhXhXhXhXhXhXhX",
"hXhXhXhXhXhXhXhXhXhXhXhXhXhXhXhXhXhXhXhXhXhXhXhXhXhXhXhXhXhXhXhXhXhXhXhXhXhXhXhXhXhXhXhXhXhXhXhXhXhXhXhXhXhXhXhXhXhXhXhXhXhXhXhX",
"hXhXhXhXhXhXhXhXhXhXhXhXhXhXhXhXhXhXhXhXhXhXhXhXhXhXhXhXhXhXhXhXhXhXhXhXhXhXhXhXhXhXhXhXhXhXhXhXhXhXhXhXhXhXhXhXhXhXhXhXhXhXhXhX",
"hXhXhXhXhXhXhXhXhXhXhXhXhXhXhXhXhXhXhXhXhXhXhXhXhXhXhXhXhXhXhXhX5.3.hXhXhXhXhXhXhXhXhXhXhXhXhXhXhXhXhXhXhXhXhXhXhXhXhXhXhXhXhXhX",
"hXhXhXhXhXhXhXhXhXhXhXhXhXhXhXhXhXhXhXhXhXhXhXhXhXhX2.h.,.0.k.k.0.6.6.[ S S E ! hXhXhXhXhXhXhXhXhXhXhXhXhXhXhXhXhXhXhXhXhXhXhXhX",
"hXhXhXhXhXhXhXhXhXhXhXhXhXhXhXhXhXhXhXhXhXhXhXp f l 0.b.p.i.x.x.5.5.3.S ,.<.[ <.W E hXhXhXhXhXhXhXhXhXhXhXhXhXhXhXhXhXhXhXhXhXhX",
"hXhXhXhXhXhXhXhXhXhXhXhXhXhXhXhXhXhXhXhXhXj C [ <.i.f.x.z.f.f.f.5.5.3.W ,.S Z x B [ [ W hXhXhXhXhXhXhXhXhXhXhXhXhXhXhXhXhXhXhXhX",
"hXhXhXhXhXhXhXhXhXhXhXhXhXhXhXhXhXhXhXl [ k.Y.G.H.H.f.f.z.i.i.i.5.3.S x r 5 e e e s S [ ' S hXhXhXhXhXhXhXhXhXhXhXhXhXhXhXhXhXhX",
"hXhXhXhXhXhXhXhXhXhXhXhXhXhXhXhXhXhXl 0.Y.W.G.G.z.z.x.x.f.i.3.3.,.B e 5 5 6 e a a y h ] V ' D hXhXhXhXhXhXhXhXhXhXhXhXhXhXhXhXhX",
"hXhXhXhXhXhXhXhXhXhXhXhXhXhXhXhXM.' <.G.G.H.H.G.z.z.z.z.g.3.S h s y a e 5 5 y a y h a s B B C ,.hXhXhXhXhXhXhXhXhXhXhXhXhXhXhXhX",
"hXhXhXhXhXhXhXhXhXhXhXhXhXhXhXN.k.5.K.W.G.H.z.z.x.z.z.x.5.,.S h y s s h s a a y y V B s y h V [ ,.hXhXhXhXhXhXhXhXhXhXhXhXhXhXhX",
"hXhXhXhXhXhXhXhXhXhXhXhXhXhXN.k.x.K.~.W.G.H.z.x.f.x.g.i.f.5.V h s s h h C h s a a h B a e s B B C ,.hXhXhXhXhXhXhXhXhXhXhXhXhXhX",
"hXhXhXhXhXhXhXhXhXhXhXhXhXM.k.f.K.K.W.W.G.W.z.5.5.5.] ] 5.] s s s s h V C h y 5 3 5 5 5 5 e B B S [ ] hXhXhXhXhXhXhXhXhXhXhXhXhX",
"hXhXhXhXhXhXhXhXhXhXhXhXM.k.i.K.K.W.W.~.E.E.z.5.1.` ` ` V ` k h h h h C ' h a 3 5 5 6 5 5 e B B V 1.0.1.hXhXhXhXhXhXhXhXhXhXhXhX",
"hXhXhXhXhXhXhXhXhXhXhX@.q.x.H.K.K.K.W.^.^.~.z.5.` V ` ' l k f i y i j V ` h 8 3 3 3 5 e e e e B B S 5.2.r.hXhXhXhXhXhXhXhXhXhXhX",
"hXhXhXhXhXhXhXhXhXhXhX8.x.D.D.K.H.K.W.E.).E.j.9.` V k k 5.K.|.}.P.a.h g k h a 8 5 5 5 5 e a a a a B 5.,.<.V.hXhXhXhXhXhXhXhXhXhX",
"hXhXhXhXhXhXhXhXhXhXo.h.S.S.F.H.H.G.W.W.~.Y.Y.9.' l x.*X3XtXtXtXtX8X>X}.V i s y a 5 5 a 5 a y y e s S 5.[ ~ hXhXhXhXhXhXhXhXhXhX",
"hXhXhXhXhXhXhXhXhX@.q.A.S.S.x.x.z.H.G.Y.b.j.9.` l }.0XaX0X0X0X6X0X0XuXaX,Xi.g s y a a a a e y a a y y ,.6.F I hXhXhXhXhXhXhXhXhX",
"hXhXhXhXhXhXhXhXhXw.F.s.s.A.x.x.z.x.z.J.j.0.[ k }.aX0X0X0X0XuXuX0X6X0X0XiX6Xx.g s a y a a 7 a a i i i h ,.[ E hXhXhXhXhXhXhXhXhX",
"hXhXhXhXhXhXhXhXhXk.t.r.y.s.r.x.f.g.l.j.h.2.' ~.aXuX0X0XiX0X1X2X9XiX0X0X0XiX3X,.i a i a 7 7 y 7 y p p f ] 6.[ hXhXhXhXhXhXhXhXhX",
"hXhXhXhXhXhXhXhXo.x.t.;.r.r.r.i.5.f.x.l.2.} 2.1XiX0X0XiX=X^.v.j.H.OX9XiX0X0XaX@Xg y a 8 3 7 y 7 7 u y i V 6.D 9 hXhXhXhXhXhXhXhX",
"hXhXhXhXhXhXhXhX1.e.t.;.:.:.:.:.i.x.l.g.1.' }.aX0X0XiX*X9.0.h.h.0.} ~.0X0X0X0X8Xu.7 5 5 3 8 a y y y y y h 9.6.E hXhXhXhXhXhXhXhX",
"hXhXhXhXhXhXhXX.2.e.e.;.:.:.:.:.:.i.i.5.} 5.1XiX0XiX<Xh.h.9.l.h.h.9.} +XaX0X0XaX.X1 a 5 , 2 a a y a y y h 6.T.4.O hXhXhXhXhXhXhX",
"hXhXhXhXhXhXhXo.-.e.;.;.:.T -.M b S 3.5.[ ).iX0X0XaX%X} h.h.9.h.h.9.0.l.<XiX0XsX-X< w 2 6 3 y s s i y 7 s [ J.c.L hXhXhXhXhXhXhX",
"hXhXhXhXhXhXhX_ Y #.;.;.=.T M m m S ,.1.` @XaX0XwXsX).2.j.9.0.9.9.9.9.} *XaX0X0X3XG ; w 3 2 7 i d d i y s ' 9.p.P hXhXhXhXhXhXhX",
"hXhXhXhXhXhXhX_ L #.Y Y Y T M m m S ,.] ` =XaXqXpX0XW.0.j.h.0.9.9.9.h.} {.iX0X0XtX/ . 6 > 3 5 8 a s s i f [ 9.<.N hXhXhXhXhXhXhX",
"hXhXhXhXhXhXhX` K #.Y Y Y T m c b W ] S S :XsXqXpX9Xv.0.9.9.9.9.h.9.h.} F.uX0X0XtXZ.X * : 3 2 2 3 8 d d h } c.h.m hXhXhXhXhXhXhX",
"hXhXhXhXhXhXhX{ L #.U Y Y m c c m W ,.` S :XsXeXpX9Xf.1.2.6.h.h.0.6.h.2.H.0X0X0XtX'.. * > , , > < 2 a y s } h.c.3.hXhXhXhXhXhXhX",
"hXhXhXhXhXhX+.{ L K 0 U Y z 4 c m S 3.] V ;XsXeXpXwXi.} 9.h.b.j.9.h.h.2.H.0X0X0XtX].= > > : : . = 2 u y s V 6.b.h.*.hXhXhXhXhXhX",
"hXhXhXhXhXhX+.{ L 0 0 U Y z 4 t M S S ] V *XfXeXpXiXW.2.h.j.b.j.j.j.h.1.H.uX0X0XiX'.= < - = o     ; u p s k 9.b.4.$.hXhXhXhXhXhX",
"hXhXhXhXhXhX+.` J K 0 U Y z 4 z T S ,.] V XXfXeXeXsX{.2.9.9.v.j.h.9.2.[ ).iX0X0XiX'.; 3 < : o     ; 7 u s V h.J.<.H hXhXhXhXhXhX",
"hXhXhXhXhXhX+.b 9 0 0 U Y z t m T W 5.,.V K.iXpXeXsX%X1.1.2.h.j.J.{.*Xz.}.aX0X0XtXL.; 5 5 ; :   . 2 y s h ` v.g.p.V.hXhXhXhXhXhX",
"hXhXhXhXhXhXhX` 9 0 0 Y Y n z m -.3.3.,.] ,.1XpXeXpX<Xj.1.9.h.9.*XaXdX;X&XuX0X0X6XR ; 5 5 - : . ; y u B V ] W.p.3.hXhXhXhXhXhXhX",
"hXhXhXhXhXhXhX| J 0 K Y Y T m b m W 3.,.] k @XfXqXpXaXOX2.h.h.0.{.iX0XiX0X0X0XuX-Xe ; 5 6 : : : 8 i d j ] 1.W.b.=.hXhXhXhXhXhXhX",
"hXhXhXhXhXhXhX .J K 0 n Y M b m m W ,.] ] V F.iXpX0XiX9XH.2.h.j.h.;XiX0X0X0X0XaX[.1 3 5 3 - 6 3 7 s j V 1.x.~.c.e.hXhXhXhXhXhXhX",
"hXhXhXhXhXhXhX .U K 0 n Y T m b S S S ] ] ] k *XdX0X0XaX1XW.9.h.2.{.iX0X0X0XuX,Xx 1 5 3 3 8 3 8 a s j 1.5.g.~.4.$.hXhXhXhXhXhXhX",
"hXhXhXhXhXhXhX@.b L Y Y T -.M b B B V S ` ] V ,.1XaX0X0XsX0X;X%X=X<X0X0X6X0XuXP.1 3 5 5 e a a 8 a a j h.5.h.Y.4.@ hXhXhXhXhXhXhX",
"hXhXhXhXhXhXhX@.` J Y =.:.:.-.B r a V ` ` S S j 3.,XdXiX0XwXiXsXiXiX0X0X3XiX,Xe 1 3 5 a a y a a a s j 6.f.J.J.R ) hXhXhXhXhXhXhX",
"hXhXhXhXhXhXhXhX .n Y =.:.:.S B s v V S S S S S f S @X0XaXiXiX0X0XiXiXaX0X0XuXP.1 2 a y s s y a a i V 5.5.W.p.H hXhXhXhXhXhXhXhX",
"hXhXhXhXhXhXhXhX+.B U =.:.-.M S B V B V ` [ [ C V j i 3.XX:X5X0X0X<X=X.X0XwX0X8XI.7 i h s e a e a s h V 5.b.4.@ hXhXhXhXhXhXhXhX",
"hXhXhXhXhXhXhXhXhXO.U e.:.-.S 3.] S B B ` [ C V V C V f y s Z a.u.Z y 7 XXdX0X8X3XP.h i y w e 5 a f s ` j.4.K hXhXhXhXhXhXhXhXhX",
"hXhXhXhXhXhXhXhXhXo.b r.>.-.,.3.,.V V ` [ [ C C [ ` ] [ V f i i i i f f s &XaX6X6XrX-XoX@X$X2 2 a y V v.c.S # hXhXhXhXhXhXhXhXhX",
"hXhXhXhXhXhXhXhXhXhX| R r.>.3.3.,.] 1.5.,.,.[ C [ ] ` V V V C C V C V B i x #XtX6X4X7XrXgX#X2 a a y 5.E.A e.hXhXhXhXhXhXhXhXhXhX",
"hXhXhXhXhXhXhXhXhXhXX.[ :.i.3.3.5.5.f.l.,.5.<.[ S S V B h V C C C [ B h h f h [.>X4X7X4X#X~ a y a B Q.a.C ( hXhXhXhXhXhXhXhXhXhX",
"hXhXhXhXhXhXhXhXhXhXhX_ B 3.f.5.g.x.f.i.5.6.2.<.D S V s a s s h V V V s h V k i B y.S.! 2 2 a a w 5.F.F %.hXhXhXhXhXhXhXhXhXhXhX",
"hXhXhXhXhXhXhXhXhXhXhXhX8.S W 5.5.5.g.5.5.5.1.] ] ` [ V h s s s h B h B S ` V y i i y 7 3 5 s e B H.A =.hXhXhXhXhXhXhXhXhXhXhXhX",
"hXhXhXhXhXhXhXhXhXhXhXhXm.q.v W z.H.H.x.g.h.h.2.,.C D C V B V C C V ` 1.] ] V h s s e 5 , e h j 5.A 3.& hXhXhXhXhXhXhXhXhXhXhXhX",
"hXhXhXhXhXhXhXhXhXhXhXhXhX7.k.5.l.G.H.x.j.b.b.h.1.[ D V V V C [ [ ` ] } ] ] 1.{ f s a a r y f ] A Q ^ hXhXhXhXhXhXhXhXhXhXhXhXhX",
"hXhXhXhXhXhXhXhXhXhXhXhXhXhX7.k.h.l.x.H.z.J.b.h.6.6.6.V V ' [ } } [ ] ] ] 1.h.2.s s f s r s ,.D A % hXhXhXhXhXhXhXhXhXhXhXhXhXhX",
"hXhXhXhXhXhXhXhXhXhXhXhXhXhXhX7.R.J.l.v.H.J.c.h.h.h.l.` V [ } } [ ` [ } 5.6.5.9.` B h f B W A Q $ hXhXhXhXhXhXhXhXhXhXhXhXhXhXhX",
"hXhXhXhXhXhXhXhXhXhXhXhXhXhXhXhX7.T.Q.h.J.v.h.h.h.x.9.` ` ] } [ } 2.6.9.j.x.h.l.1.k V 5.1.A P $ hXhXhXhXhXhXhXhXhXhXhXhXhXhXhXhX",
"hXhXhXhXhXhXhXhXhXhXhXhXhXhXhXhXhXhXU.R.b.J.b.h.1.1.5.` ] 2.0.6.h.j.j.v.z.z.v.b.h.h.x.D x q hXhXhXhXhXhXhXhXhXhXhXhXhXhXhXhXhXhX",
"hXhXhXhXhXhXhXhXhXhXhXhXhXhXhXhXhXhXhXn.d.R./.Q.b.x.v.9.j.v.J.b.J.J.v.b.b.j.v.^.(.J.Q I + hXhXhXhXhXhXhXhXhXhXhXhXhXhXhXhXhXhXhX",
"hXhXhXhXhXhXhXhXhXhXhXhXhXhXhXhXhXhXhXhXhX..d.W.`./.!.J.H.~.Y.b.J.H.j.J.T.T.!. X(.H O hXhXhXhXhXhXhXhXhXhXhXhXhXhXhXhXhXhXhXhXhX",
"hXhXhXhXhXhXhXhXhXhXhXhXhXhXhXhXhXhXhXhXhXhXhXhXd.d.v.R.R._._.R.N.R.!././.U.%.( hXhXhXhXhXhXhXhXhXhXhXhXhXhXhXhXhXhXhXhXhXhXhXhX",
"hXhXhXhXhXhXhXhXhXhXhXhXhXhXhXhXhXhXhXhXhXhXhXhXhXhXhX@ B.C.&.#.$.C.%.%.$ hXhXhXhXhXhXhXhXhXhXhXhXhXhXhXhXhXhXhXhXhXhXhXhXhXhXhX",
"hXhXhXhXhXhXhXhXhXhXhXhXhXhXhXhXhXhXhXhXhXhXhXhXhXhXhXhXhXhXhXhXhXhXhXhXhXhXhXhXhXhXhXhXhXhXhXhXhXhXhXhXhXhXhXhXhXhXhXhXhXhXhXhX",
"hXhXhXhXhXhXhXhXhXhXhXhXhXhXhXhXhXhXhXhXhXhXhXhXhXhXhXhXhXhXhXhXhXhXhXhXhXhXhXhXhXhXhXhXhXhXhXhXhXhXhXhXhXhXhXhXhXhXhXhXhXhXhXhX",
"hXhXhXhXhXhXhXhXhXhXhXhXhXhXhXhXhXhXhXhXhXhXhXhXhXhXhXhXhXhXhXhXhXhXhXhXhXhXhXhXhXhXhXhXhXhXhXhXhXhXhXhXhXhXhXhXhXhXhXhXhXhXhXhX",
"hXhXhXhXhXhXhXhXhXhXhXhXhXhXhXhXhXhXhXhXhXhXhXhXhXhXhXhXhXhXhXhXhXhXhXhXhXhXhXhXhXhXhXhXhXhXhXhXhXhXhXhXhXhXhXhXhXhXhXhXhXhXhXhX",
"hXhXhXhXhXhXhXhXhXhXhXhXhXhXhXhXhXhXhXhXhXhXhXhXhXhXhXhXhXhXhXhXhXhXhXhXhXhXhXhXhXhXhXhXhXhXhXhXhXhXhXhXhXhXhXhXhXhXhXhXhXhXhXhX",
"hXhXhXhXhXhXhXhXhXhXhXhXhXhXhXhXhXhXhXhXhXhXhXhXhXhXhXhXhXhXhXhXhXhXhXhXhXhXhXhXhXhXhXhXhXhXhXhXhXhXhXhXhXhXhXhXhXhXhXhXhXhXhXhX"
};
