/* XPM */
static const char *quercus16[] = {
/* columns rows colors chars-per-pixel */
"16 16 127 2 ",
"   c #E23700",
".  c #E13900",
"X  c #EF5300",
"o  c #EF5501",
"O  c #EC5706",
"+  c #F15704",
"@  c #F25B03",
"#  c #F05905",
"$  c #F46500",
"%  c #F36404",
"&  c #F66A00",
"*  c #F76A00",
"=  c #FF6A00",
"-  c #FB6906",
";  c #F26208",
":  c #F56209",
">  c #F3650A",
",  c #FF6F09",
"<  c #F37308",
"1  c #F4740F",
"2  c #FF700F",
"3  c #F8770E",
"4  c #F7790D",
"5  c #E76C16",
"6  c #EF6E19",
"7  c #E7701A",
"8  c #ED7A1E",
"9  c #F17310",
"0  c #F27712",
"q  c #F47517",
"w  c #FA7512",
"e  c #FF7711",
"r  c #F27913",
"t  c #F47916",
"y  c #F97911",
"u  c #FC7912",
"i  c #FF7A12",
"p  c #FF7C12",
"a  c #EB7D23",
"s  c #EE7F20",
"d  c #F2782C",
"f  c #E67944",
"g  c #F88613",
"h  c #FA8318",
"j  c #FF871B",
"k  c #FF801C",
"l  c #F8841C",
"z  c #F9841C",
"x  c #FA851F",
"c  c #FF851E",
"v  c #F88A1E",
"b  c #F98A1E",
"n  c #EB8122",
"m  c #E5842D",
"M  c #EE892C",
"N  c #F58220",
"B  c #F08425",
"V  c #F08822",
"C  c #F78B23",
"Z  c #F78A24",
"A  c #F88B20",
"S  c #FF8E22",
"D  c #F88825",
"F  c #FB8827",
"G  c #FD8824",
"H  c #F5872A",
"J  c #F3872D",
"K  c #FB8E2E",
"L  c #F7952A",
"P  c #F5902D",
"I  c #FF932B",
"U  c #FF972C",
"Y  c #F58C30",
"T  c #EE9032",
"R  c #F29130",
"E  c #F79431",
"W  c #F39334",
"Q  c #FA9030",
"!  c #F99430",
"~  c #FD9637",
"^  c #FF9935",
"/  c #F69439",
"(  c #FA953B",
")  c #FD9A39",
"_  c #FC9B3B",
"`  c #FE9F3A",
"'  c #FF9F3D",
"]  c #FDA135",
"[  c #FFA036",
"{  c #FFA53C",
"}  c #ED894D",
"|  c #F89C42",
" . c #FFA140",
".. c #F9A641",
"X. c #FFA546",
"o. c #FFA842",
"O. c #FEA845",
"+. c #FFA549",
"@. c #FFAD4D",
"#. c #FAA651",
"$. c #E48B63",
"%. c #EDA065",
"&. c #F4AC70",
"*. c #F6B672",
"=. c #F4B278",
"-. c #F2B579",
";. c #EAB080",
":. c #F7BF89",
">. c #F7C389",
",. c #F2C08E",
"<. c #F6CB96",
"1. c #F5C898",
"2. c #F4CB98",
"3. c #F0C9A6",
"4. c #F6D2A4",
"5. c #F3D0A8",
"6. c #F7D2AA",
"7. c #F7D9B1",
"8. c #F4DAB0",
"9. c #F4DBB5",
"0. c #F1DBC1",
"q. c #F5DEC2",
"w. c #F3E1C7",
"e. c #F3E5CA",
"r. c #F3E7CB",
"t. c #F4E7CB",
"y. c None",
/* pixels */
"y.y.y.y.y.y.y.y.y.y.y.y.y.y.y.y.",
"y.y.y.y.y.y.y.~ K y.y.y.y.y.y.y.",
"y.y.y.y.y.)  .^ k 2 i x y.y.y.y.",
"y.y.y.] @.+.Z < $ % : p C y.y.y.",
"y.y.y.X.#.E / ,.-.q o ; j y.y.y.",
"y.y.W ( P | w.2.9.5.> @ , N y.y.",
"y.y.M a r 2.4.g ! r.f X - G y.y.",
"y.y.B 5 9 6.>.A v 7.$.. + S y.y.",
"y.y.s 7 0 :.7.v *.r.}   # U y.y.",
"y.y.n 8 1 Y q.<.t.0.O X w ) y.y.",
"y.y.V F t 4 H =.&.3.%.6 i T y.y.",
"y.y.y.I Q F 3 * * J ;.d c y.y.y.",
"y.y.y.L o.' x y x h = e m y.y.y.",
"y.y.y.y.y...` ] { O.R y.y.y.y.y.",
"y.y.y.y.y.y.y.y.y.y.y.y.y.y.y.y.",
"y.y.y.y.y.y.y.y.y.y.y.y.y.y.y.y."
};
