/* XPM */
static const char *quercus32[] = {
/* columns rows colors chars-per-pixel */
"32 32 181 2 ",
"   c #DB3707",
".  c #DC3905",
"X  c #E34305",
"o  c #E54A05",
"O  c #EA4D02",
"+  c #EB5303",
"@  c #EE5B05",
"#  c #EC5308",
"$  c #ED5B09",
"%  c #F25C02",
"&  c #F15E08",
"*  c #DF751F",
"=  c #E6600E",
"-  c #EE620A",
";  c #F46405",
":  c #F86505",
">  c #F56B03",
",  c #F86907",
"<  c #F26409",
"1  c #F36C0B",
"2  c #F77305",
"3  c #F5730C",
"4  c #F8750A",
"5  c #F67A0D",
"6  c #FB790C",
"7  c #E66713",
"8  c #EE6616",
"9  c #E86A15",
"0  c #EA7117",
"q  c #E5731B",
"w  c #EC751B",
"e  c #EE781C",
"r  c #F37413",
"t  c #FB7411",
"y  c #F67B13",
"u  c #FA7B14",
"i  c #F47C1B",
"p  c #F97F1A",
"a  c #CD7F21",
"s  c #CE752B",
"d  c #C87B2F",
"f  c #D27326",
"g  c #DB7523",
"h  c #DE7C23",
"j  c #E07720",
"k  c #EA7523",
"l  c #E27B23",
"z  c #EC7D23",
"x  c #ED792C",
"c  c #F27E22",
"v  c #F17929",
"b  c #F6930F",
"n  c #EC8414",
"m  c #ED8B16",
"M  c #EF821D",
"N  c #F68016",
"B  c #FD8516",
"V  c #FE8E17",
"C  c #F6831D",
"Z  c #F9831B",
"A  c #F48A1D",
"S  c #FA8B1D",
"D  c #F09415",
"F  c #F0901A",
"G  c #DC832B",
"H  c #EB8126",
"J  c #E3812B",
"K  c #EB8329",
"L  c #EF892E",
"P  c #F48323",
"I  c #FB8322",
"U  c #F68924",
"Y  c #FB8B23",
"T  c #F6872C",
"R  c #F48C2C",
"E  c #FC8D2B",
"W  c #EE902D",
"Q  c #F39623",
"!  c #F99026",
"~  c #F7922B",
"^  c #FA922C",
"/  c #FD9B29",
"(  c #E28630",
")  c #EC8A32",
"_  c #F28430",
"`  c #F38D31",
"'  c #EE9B30",
"]  c #EC933D",
"[  c #EC9B3F",
"{  c #F69335",
"}  c #FA9432",
"|  c #FD9A36",
" . c #F4943B",
".. c #FA9639",
"X. c #F7983A",
"o. c #FC9A3B",
"O. c #F1A136",
"+. c #FEA132",
"@. c #FFA33D",
"#. c #EC8C4D",
"$. c #E49D47",
"%. c #E79F49",
"&. c #EE9C49",
"*. c #F39643",
"=. c #F69D43",
"-. c #FC9C41",
";. c #F49C4A",
":. c #EE9D56",
">. c #ECA34B",
",. c #F5A443",
"<. c #FDA444",
"1. c #FFAA46",
"2. c #F6A24D",
"3. c #FAA34A",
"4. c #FFAA4A",
"5. c #F6A652",
"6. c #F8A652",
"7. c #F7A955",
"8. c #F4A55D",
"9. c #F7AB5A",
"0. c #FFB255",
"q. c #EEA26C",
"w. c #F3A360",
"e. c #F5AC63",
"r. c #F4AE6E",
"t. c #F5B46A",
"y. c #EFAA77",
"u. c #F0AD73",
"i. c #F2AE78",
"p. c #E3A080",
"a. c #E8B289",
"s. c #F4BD85",
"d. c #E5B697",
"f. c #EEBA92",
"g. c #EBBF9A",
"h. c #F6C48B",
"j. c #F3C494",
"k. c #F4CB9E",
"l. c #EFCBAA",
"z. c #F4CDA0",
"x. c #F1CBA9",
"c. c #EBD2AF",
"v. c #F3D1AB",
"b. c #F3D5B3",
"n. c #F5D9B4",
"m. c #F1DBBB",
"M. c #F3DCB9",
"N. c #F4DEBF",
"B. c #F2DDBD",
"V. c #E9DFC9",
"C. c #F7E2C4",
"Z. c #F1E1C5",
"A. c #F2E3CA",
"S. c #F2E4CB",
"D. c #F4E4CA",
"F. c #F6E6CC",
"G. c #F3E1C8",
"H. c #F8E5C9",
"J. c #EFE6D0",
"K. c #E6E9D9",
"L. c #EFEAD8",
"P. c #F3E7D0",
"I. c #F3E8D1",
"U. c #F1E9D4",
"Y. c #F5EAD4",
"T. c #F8EDD7",
"R. c #F6EFDE",
"E. c #F4EFDB",
"W. c #F3F0DE",
"Q. c #F3F1DD",
"!. c #EEF7EB",
"~. c #F2F0E0",
"^. c #F4F0E0",
"/. c #F3F2E5",
"(. c #F4F3E5",
"). c #F4F7E5",
"_. c #F5F5E5",
"`. c #F8F2E1",
"'. c #F8F4E5",
"]. c None",
"[. c black",
/* pixels */
"].].].].].].].].].].].].].].].].].].].].].].].].].].].].].].].].",
"].].].].].].].].].].].].].].].].].].].].].].].].].].].].].].].].",
"].].].].].].].].].].].].].].].].].].].].].].].].].].].].].].].].",
"].].].].].].].].].].].].6 ^ } ..E U P P v ].].].].].].].].].].].",
"].].].].].].].].].].Y E | o...{ R i r t u Z C ].].].].].].].].].",
"].].].].].].].].V E 4.3.*. .` P r - # ; 1 t B i ].].].].].].].].",
"].].].].].].].+.@.3.=. . .{ R r 1 3 1 < 1 1 1 B c ].].].].].].].",
"].].].].].]./ @.2.5.2.{ U C N > > 5 y & $ $ $ r S U ].].].].].].",
"].].].].].].@.;.;.5.7.{ 5 5 R  ._ 5 2 & # $ - < r / ) ].].].].].",
"].].].].].} ;.*.*.3.3.U U j.A.L.J.v.*.> ; & < < ; Z P ].].].].].",
"].].].]./ -.]  .{ X.! U b./.I.M.S.~.U.;.> < & ; ; 1 Y k ].].].].",
"].].].].W ) ) L { { N s.(.N.9.X.=.v.^.m.r @ $ : : ; Y z ].].].].",
"].].].].R ( K z H U { A.R.t.S } S =.D.Q.#.+ # ; , % p o.].].].].",
"].].].m T J z w w y 8.R.F.=.~ ^ ^ Y k._.p.X # ; , ; y } g ].].].",
"].].].A K l w 9 e y e.`.C.{ Y } ^ A s._.d.. o # # , u | h ].].].",
"].].].F H j q = e y 8.`.H. .~ o.^ Z s._.g.o X   X : 5 | ` ].].].",
"].].].n q l q 7 z p *.Y.T.5.A X.6.=.j.(.f.+ O   X : y | ) ].].].",
"].].].m w h l 0 c U C n.'.h.S ~ z.P.B.Q.q.O # X @ 4 U <.( ].].].",
"].].].D P * z w i C 5 r._.I.e.Y e.Y.I.Z.k O # # ; u } <.G ].].].",
"].].].].M l H e 1 i N y j._.E.n.n.Y.E.y.O $ < < ; C o...].].].].",
"].].].].n K K i r y Z y 5 w.v.P.A.x.Y.l.8 ; ; < < y o.( ].].].].",
"].].].].b E K P C y Z u y 2 3 c i ; i.!.c.:.#.- ; C } a ].].].].",
"].].].].].A ` T U R U Z Z y 5 4 5 4 > u.V.K.a.@ 1 | J ].].].].].",
"].].].].].].Y T { { R I p y 1 3 y r y > i x @ ; I E ].].].].].].",
"].].].].].].Q ^ X.X...} C u y u y C C p > % @ u E d ].].].].].].",
"].].].].].].].' @.o.=...} U u Z Z C U R 5 3 u I s ].].].].].].].",
"].].].].].].].].].,.1.o.} U C Y ~ } X.o.^ Y k ].].].].].].].].].",
"].].].].].].].].].].O.,.4.@.<.4.<.<.1.0.&.f ].].].].].].].].].].",
"].].].].].].].].].].].].].[ >.[ ] >.$.].].].].].].].].].].].].].",
"].].].].].].].].].].].].].].].].].].].].].].].].].].].].].].].].",
"].].].].].].].].].].].].].].].].].].].].].].].].].].].].].].].].",
"].].].].].].].].].].].].].].].].].].].].].].].].].].].].].].].]."
};
