<?xml version="1.0" standalone="no"?>
<!DOCTYPE svg PUBLIC "-//W3C//DTD SVG 20010904//EN"
 "http://www.w3.org/TR/2001/REC-SVG-20010904/DTD/svg10.dtd">
<svg version="1.0" xmlns="http://www.w3.org/2000/svg"
 width="1024.000000pt" height="1024.000000pt" viewBox="0 0 1024.000000 1024.000000"
 preserveAspectRatio="xMidYMid meet">
<metadata>
Created by potrace 1.16, written by Peter Selinger 2001-2019
</metadata>
<g transform="translate(0.000000,1024.000000) scale(0.100000,-0.100000)"
fill="#000000" stroke="none">
<path d="M0 5120 l0 -5120 5120 0 5120 0 0 5120 0 5120 -5120 0 -5120 0 0
-5120z m5239 4376 c13 -5 21 -4 18 0 -3 5 6 10 19 10 14 1 21 -2 17 -9 -4 -6
-1 -7 8 -1 17 10 49 6 67 -8 8 -7 12 -7 12 1 0 7 5 9 13 4 6 -4 15 -8 20 -9 4
-1 8 -2 10 -3 1 -1 38 -4 81 -6 43 -3 84 -9 91 -15 6 -5 14 -8 16 -6 9 9 59
15 54 6 -3 -4 2 -10 10 -14 8 -3 15 0 15 5 0 7 11 4 25 -5 14 -9 38 -15 53
-13 15 2 34 1 42 -3 16 -8 72 -21 103 -23 9 -1 17 -5 17 -10 0 -4 5 -5 10 -2
12 8 79 -14 102 -33 9 -7 22 -12 30 -11 34 4 59 -2 52 -13 -5 -8 -2 -9 9 -5
10 3 17 3 17 -2 0 -5 6 -8 13 -8 22 2 127 -34 122 -42 -2 -5 6 -8 18 -7 14 1
21 7 19 16 -2 8 0 11 5 7 4 -5 8 -14 8 -20 0 -7 6 -13 13 -13 6 -1 15 -3 20
-4 4 -1 10 -2 15 -1 4 0 7 -3 7 -7 0 -4 8 -8 18 -9 9 -1 31 -7 47 -13 17 -6
30 -10 30 -9 0 1 10 -3 23 -10 12 -7 20 -16 17 -21 -3 -6 1 -7 9 -4 8 3 32 -4
55 -16 23 -11 41 -18 41 -15 0 3 10 -3 22 -15 12 -11 28 -20 35 -20 8 0 11 -5
8 -11 -4 -6 -1 -9 6 -8 20 4 119 -41 119 -54 0 -6 3 -7 7 -4 3 4 15 -1 26 -10
10 -10 24 -18 30 -18 7 0 37 -12 67 -26 30 -15 62 -29 70 -33 8 -3 33 -17 55
-31 22 -13 65 -37 95 -52 30 -16 57 -31 58 -36 2 -4 8 -5 13 -1 5 3 9 0 9 -5
0 -6 3 -10 8 -9 4 1 26 -10 49 -25 24 -15 47 -27 52 -27 5 0 11 -7 15 -15 3
-8 9 -14 13 -13 4 2 19 -7 33 -19 14 -12 28 -21 31 -20 3 1 20 -10 38 -26 18
-15 38 -24 43 -21 7 4 8 2 4 -5 -5 -7 4 -15 23 -22 17 -6 31 -16 31 -22 0 -6
2 -8 5 -5 3 3 18 -6 34 -21 55 -52 123 -106 132 -103 5 1 9 -5 9 -15 0 -9 3
-14 6 -11 7 8 50 -34 46 -44 -1 -5 4 -8 12 -8 8 0 34 -19 59 -42 25 -24 56
-52 69 -63 12 -12 37 -36 55 -55 33 -37 82 -80 89 -80 9 0 69 -65 66 -72 -1
-5 5 -8 13 -8 8 0 15 -4 15 -9 0 -13 113 -126 123 -123 5 1 6 -1 3 -6 -3 -5
12 -24 34 -43 22 -19 40 -37 40 -41 0 -14 38 -46 46 -40 4 4 4 2 1 -4 -4 -7 5
-25 21 -42 44 -49 60 -69 75 -99 9 -15 18 -27 21 -25 3 1 6 -1 7 -5 0 -5 7
-12 15 -16 8 -4 14 -15 14 -23 0 -9 6 -21 13 -28 27 -29 52 -63 55 -77 2 -8 8
-15 13 -17 5 -2 9 -9 9 -16 0 -8 12 -25 26 -39 14 -14 23 -31 19 -37 -3 -5 -1
-10 4 -10 6 0 11 -6 11 -13 0 -7 11 -29 25 -49 13 -20 26 -42 27 -49 2 -8 12
-22 22 -31 10 -10 16 -18 11 -18 -4 0 -2 -6 4 -13 6 -8 8 -17 4 -20 -3 -4 -1
-7 5 -7 6 0 9 -9 7 -20 -2 -11 0 -20 6 -20 8 0 73 -96 74 -110 2 -18 18 -50
24 -50 4 0 14 -18 21 -40 7 -22 17 -40 22 -40 5 0 7 -4 4 -9 -3 -4 1 -17 9
-27 8 -10 15 -27 15 -36 0 -10 4 -18 10 -18 5 0 12 -16 16 -35 3 -19 10 -35
14 -35 5 0 11 -18 15 -40 4 -22 11 -40 16 -40 5 0 9 -7 9 -15 0 -8 5 -15 10
-15 6 0 10 -7 10 -15 0 -8 5 -15 10 -15 6 0 10 -13 10 -29 0 -16 7 -36 15 -44
8 -8 11 -17 8 -21 -4 -3 -1 -6 6 -6 7 0 9 -5 6 -10 -4 -6 -2 -16 3 -23 9 -11
40 -91 47 -122 1 -5 10 -28 20 -50 10 -22 18 -46 18 -52 0 -7 4 -13 8 -13 3 0
9 -8 12 -17 3 -10 15 -43 26 -73 12 -30 20 -59 20 -65 -2 -19 13 -55 23 -55 6
0 5 -7 -2 -15 -9 -10 -9 -15 -1 -15 6 0 11 -9 11 -20 0 -11 5 -20 11 -20 7 0
9 -10 7 -25 -3 -14 -2 -25 2 -25 8 0 27 -79 35 -144 2 -22 9 -42 14 -45 8 -5
21 -81 26 -146 1 -11 5 -28 9 -38 5 -9 6 -26 3 -37 -3 -11 -1 -20 3 -20 5 0 9
-8 8 -17 0 -10 2 -35 5 -55 4 -21 2 -38 -3 -38 -5 0 -2 -16 5 -34 8 -19 11
-37 6 -40 -4 -3 -8 -38 -7 -78 1 -40 -2 -78 -6 -84 -4 -5 -1 -23 8 -38 11 -22
11 -32 3 -42 -6 -8 -8 -14 -5 -14 4 0 2 -9 -4 -19 -7 -13 -7 -22 0 -26 6 -4 5
-16 -5 -34 -8 -16 -11 -32 -7 -35 9 -9 12 -66 3 -66 -3 0 -7 -17 -8 -38 -5
-73 -13 -138 -24 -187 -6 -27 -13 -67 -16 -87 -3 -21 -8 -38 -13 -38 -4 0 -8
-17 -8 -37 -2 -61 -6 -83 -15 -83 -5 0 -7 -6 -4 -12 2 -7 -2 -28 -9 -47 -8
-18 -14 -44 -14 -57 0 -13 -5 -24 -11 -24 -5 0 -7 5 -3 12 4 7 3 8 -4 4 -6 -4
-9 -13 -5 -21 3 -9 0 -22 -7 -30 -9 -11 -10 -15 -1 -15 8 0 7 -6 -3 -16 -9 -8
-16 -28 -16 -44 0 -16 -6 -35 -12 -42 -7 -7 -13 -24 -13 -38 0 -13 -12 -37
-27 -54 -15 -16 -24 -34 -21 -39 3 -5 1 -19 -4 -30 -12 -26 -43 -116 -48 -137
-2 -8 -4 -17 -5 -20 -1 -3 -2 -8 -1 -12 0 -5 -3 -8 -9 -8 -6 0 -9 -3 -9 -7 5
-28 -2 -53 -13 -47 -8 5 -9 2 -5 -10 4 -9 -2 -32 -13 -52 -11 -19 -17 -40 -14
-46 4 -7 2 -8 -5 -4 -7 5 -13 -3 -17 -23 -4 -17 -10 -31 -15 -31 -5 0 -9 -9
-9 -19 0 -11 -7 -26 -15 -34 -8 -8 -11 -17 -8 -21 4 -3 1 -6 -6 -6 -7 0 -10
-4 -6 -9 3 -5 1 -12 -5 -16 -5 -3 -23 -35 -40 -70 -17 -36 -35 -65 -41 -65 -5
0 -9 -6 -9 -12 -1 -22 -36 -89 -43 -81 -4 3 -7 -5 -7 -18 0 -14 -9 -30 -20
-37 -12 -7 -18 -17 -15 -22 3 -6 2 -10 -3 -10 -6 0 -15 -12 -21 -27 -19 -45
-43 -87 -55 -95 -6 -4 -7 -8 -3 -8 5 0 -1 -13 -12 -29 -12 -16 -21 -34 -21
-40 0 -6 -4 -11 -10 -11 -5 0 -10 -7 -10 -16 0 -8 -4 -12 -10 -9 -5 3 -10 0
-10 -8 0 -8 -12 -26 -27 -41 -15 -15 -28 -34 -29 -41 -1 -8 -10 -22 -19 -32
-10 -9 -22 -29 -27 -45 -6 -15 -14 -28 -19 -28 -5 0 -16 -14 -25 -32 -9 -17
-24 -40 -35 -51 -10 -11 -16 -24 -13 -29 3 -4 1 -8 -5 -8 -5 0 -12 -9 -16 -20
-3 -11 -9 -19 -13 -17 -4 1 -8 -1 -9 -5 -2 -5 -11 -16 -20 -26 -10 -10 -24
-28 -32 -40 -8 -11 -18 -19 -22 -16 -4 2 -13 -9 -21 -26 -7 -16 -16 -30 -19
-30 -3 0 -20 -14 -37 -30 -18 -17 -29 -30 -25 -30 4 0 -19 -25 -50 -55 -31
-30 -53 -55 -50 -55 3 0 -6 -10 -21 -21 -15 -12 -25 -23 -22 -26 2 -3 -11 -21
-30 -41 -19 -20 -34 -40 -34 -44 0 -4 -7 -8 -15 -8 -8 0 -28 -13 -43 -30 -16
-16 -35 -30 -42 -30 -7 0 -11 -3 -7 -6 8 -9 -53 -74 -70 -74 -8 0 -12 -3 -10
-7 3 -5 -1 -14 -9 -21 -8 -7 -14 -11 -14 -8 0 2 -17 -12 -39 -32 -64 -62 -101
-93 -101 -85 0 4 -13 -8 -29 -26 -18 -21 -34 -30 -42 -25 -7 4 -10 3 -6 -3 4
-6 -7 -16 -23 -23 -17 -7 -30 -19 -30 -27 0 -8 -4 -12 -9 -9 -5 4 -11 3 -13
-1 -3 -9 -64 -53 -72 -53 -3 0 -17 -11 -32 -25 -15 -14 -33 -25 -40 -25 -8 0
-14 -4 -14 -10 0 -5 -11 -12 -25 -16 -14 -4 -23 -9 -20 -12 5 -6 -74 -62 -89
-62 -4 0 -25 -13 -45 -28 -20 -15 -55 -37 -78 -47 -24 -11 -43 -23 -43 -27 0
-5 -4 -8 -10 -8 -5 0 -26 -11 -46 -25 -20 -13 -62 -36 -93 -51 -31 -14 -85
-40 -121 -57 -36 -17 -71 -30 -77 -29 -7 2 -13 -3 -13 -9 0 -7 -3 -9 -6 -6 -4
4 -19 -2 -33 -12 -14 -10 -30 -20 -36 -22 -5 -2 -9 -7 -8 -10 1 -3 -9 -4 -22
-1 -17 3 -27 -1 -31 -12 -3 -9 -10 -13 -15 -10 -6 3 -16 0 -24 -6 -8 -7 -15
-9 -15 -4 0 5 -4 4 -8 -1 -4 -6 -32 -19 -62 -29 -30 -11 -66 -26 -80 -35 -13
-9 -27 -15 -30 -15 -6 2 -48 -14 -75 -29 -11 -5 -33 -12 -50 -14 -16 -2 -43
-9 -60 -17 -16 -8 -48 -18 -70 -21 -22 -4 -46 -12 -52 -18 -9 -6 -13 -6 -13 3
0 10 -3 10 -15 0 -8 -6 -19 -9 -25 -5 -5 3 -10 1 -10 -6 0 -7 -3 -9 -6 -6 -4
3 -15 2 -25 -4 -18 -9 -102 -21 -164 -22 -16 0 -33 -4 -36 -10 -4 -5 -28 -9
-55 -9 -27 0 -60 -7 -73 -15 -13 -8 -20 -10 -17 -4 4 6 0 11 -9 11 -9 0 -14
-4 -11 -8 5 -9 -6 -11 -97 -14 -49 -2 -66 -6 -62 -16 3 -9 0 -10 -13 -3 -10 5
-23 6 -30 2 -6 -4 -34 -7 -62 -6 -27 0 -50 -4 -50 -10 0 -5 -4 -4 -9 4 -6 9
-11 10 -15 2 -4 -6 -13 -8 -19 -4 -16 10 -37 13 -37 5 0 -4 -27 -8 -61 -10
-45 -2 -59 0 -53 9 5 8 3 9 -7 3 -21 -13 -42 -14 -56 -2 -10 8 -13 7 -13 -3 0
-10 -3 -10 -11 -2 -8 8 -20 8 -34 3 -13 -5 -25 -7 -27 -5 -2 2 -37 7 -78 10
-41 4 -84 8 -95 9 -11 2 -47 6 -80 11 -33 4 -69 10 -80 12 -11 3 -35 5 -52 5
-22 0 -30 4 -26 12 4 6 0 5 -9 -2 -13 -11 -21 -11 -39 -1 -12 6 -45 13 -72 15
-27 3 -54 7 -60 11 -6 4 -25 7 -42 8 -16 0 -35 4 -41 7 -6 4 -25 9 -43 10 -17
1 -31 5 -31 9 0 4 -8 6 -17 5 -10 -2 -31 1 -48 6 -16 5 -37 11 -45 13 -8 2
-17 4 -20 5 -3 1 -9 3 -15 5 -5 1 -13 3 -17 5 -5 1 -12 4 -18 5 -5 1 -11 3
-12 5 -2 1 -19 3 -38 5 -19 2 -36 9 -38 14 -2 6 -11 11 -21 11 -9 0 -23 6 -30
13 -11 10 -12 9 -6 -3 5 -9 -1 -7 -15 5 -13 11 -20 14 -16 7 7 -11 4 -11 -15
0 -13 7 -26 15 -29 18 -3 3 -13 6 -24 8 -10 2 -30 8 -45 14 -14 6 -28 12 -31
13 -26 9 -49 19 -71 31 -14 7 -29 11 -33 7 -3 -3 -6 -2 -6 3 0 6 -27 18 -60
28 -33 10 -58 22 -55 26 2 4 -13 10 -35 14 -22 3 -40 11 -40 17 0 5 -4 7 -10
4 -5 -3 -10 -1 -10 4 0 6 -6 11 -14 11 -7 0 -25 9 -39 20 -14 11 -32 20 -40
20 -9 0 -17 3 -19 8 -6 15 -224 132 -257 138 -8 1 -17 6 -20 11 -11 15 -91 64
-91 56 0 -5 -5 0 -11 9 -5 9 -16 15 -24 12 -8 -4 -18 1 -21 10 -3 9 -12 16
-20 16 -8 0 -14 6 -14 13 0 7 -20 21 -45 32 -24 11 -50 30 -56 42 -7 12 -16
20 -20 17 -5 -3 -23 9 -40 26 -18 16 -36 30 -40 30 -4 0 -20 11 -35 25 -15 14
-32 24 -38 22 -6 -2 -28 13 -48 34 -21 21 -38 36 -38 32 0 -3 -7 0 -15 7 -8 7
-12 16 -9 21 3 5 2 8 -3 7 -8 -3 -103 83 -161 146 -15 16 -33 34 -40 40 -8 6
-36 32 -63 59 -27 26 -54 47 -59 47 -6 0 -8 5 -5 10 3 6 1 10 -5 10 -6 0 -15
11 -20 25 -5 14 -14 24 -19 23 -5 -2 -20 9 -34 25 -14 15 -25 27 -23 27 1 0
-21 25 -49 55 -29 30 -58 55 -65 55 -7 0 -11 3 -7 6 6 6 2 12 -50 70 -18 19
-33 42 -33 50 0 8 -4 12 -10 9 -5 -3 -10 -1 -10 6 0 6 -9 19 -20 29 -31 27
-91 120 -85 131 4 5 1 8 -5 7 -7 -2 -17 6 -23 16 -7 11 -19 27 -27 36 -36 42
-53 68 -71 106 -21 46 -42 68 -53 56 -4 -4 -6 -2 -5 3 4 15 -42 105 -54 105
-6 0 -8 3 -4 6 3 3 -2 14 -11 24 -35 38 -43 51 -54 80 -5 17 -14 27 -19 24 -5
-3 -6 2 -3 10 4 11 0 16 -10 16 -9 0 -16 6 -16 13 0 6 -11 32 -25 57 -13 25
-38 73 -56 108 -17 34 -36 62 -42 62 -6 0 -8 3 -4 6 3 4 -3 24 -13 45 -11 21
-20 47 -20 59 0 11 -5 20 -11 20 -5 0 -7 5 -4 11 4 5 0 18 -8 27 -8 9 -18 34
-22 54 -4 21 -11 35 -16 32 -8 -5 -14 17 -10 39 0 4 -4 7 -10 7 -5 0 -7 5 -4
10 3 6 1 10 -5 10 -7 0 -10 7 -7 15 4 8 2 17 -4 20 -5 4 -7 11 -4 16 4 5 1 9
-5 9 -6 0 -9 4 -6 8 7 12 -11 77 -35 128 -10 22 -19 46 -19 53 0 7 -5 9 -12 5
-7 -4 -8 -3 -4 4 4 6 1 31 -5 54 -17 57 -16 56 -18 73 0 8 -8 15 -16 15 -10 0
-13 10 -11 34 1 19 -1 33 -5 30 -8 -4 -24 53 -21 73 2 6 -2 14 -7 17 -5 3 -7
16 -3 28 3 13 1 19 -5 15 -6 -4 -9 7 -8 28 2 19 -1 35 -5 35 -4 0 -10 24 -13
53 -4 28 -9 68 -12 87 -4 19 -7 44 -8 55 -1 11 -6 23 -12 27 -6 5 -5 8 4 8 9
0 10 4 4 13 -6 6 -11 26 -11 42 -1 17 -4 46 -7 65 -4 19 -8 69 -11 109 -3 41
-7 77 -9 80 -3 2 0 10 6 18 6 7 8 13 3 13 -5 0 -9 26 -9 58 0 31 -3 67 -7 80
-4 12 -4 22 1 22 10 0 7 58 -4 68 -4 4 -5 -2 -1 -13 6 -16 5 -17 -5 -8 -9 9
-8 18 6 39 9 14 13 29 9 33 -12 8 -11 64 1 74 6 6 6 10 -3 14 -6 2 -9 9 -6 14
12 20 16 71 5 64 -16 -9 -13 1 5 19 8 9 11 16 5 16 -10 0 -9 28 3 113 3 16 0
27 -7 27 -8 0 -7 4 2 9 8 5 12 18 8 30 -3 12 -2 21 2 21 3 0 7 30 8 66 0 37 5
69 11 73 5 3 8 18 7 34 -2 15 1 27 7 27 6 0 8 7 5 15 -4 8 -1 17 5 21 7 4 6 9
-3 15 -8 5 -9 9 -3 9 6 0 10 12 8 27 -1 15 2 31 9 35 6 4 12 22 13 40 3 57 4
59 13 54 5 -4 8 2 6 11 -1 10 2 23 7 30 5 7 7 17 4 22 -4 6 0 27 9 48 9 20 13
43 11 50 -3 7 2 13 11 13 13 0 14 2 2 17 -10 11 -10 14 -2 9 8 -4 14 -2 15 6
1 14 4 28 8 41 1 4 4 12 5 17 1 6 3 11 5 13 1 1 4 15 6 31 3 16 10 39 17 50 6
12 12 26 13 31 0 6 2 13 4 18 1 4 3 10 5 15 3 12 16 45 26 67 5 11 11 32 13
48 3 15 12 42 20 59 9 17 16 41 16 54 0 12 5 24 12 26 6 2 12 13 13 24 1 10 8
30 15 44 15 27 17 31 19 55 0 8 9 15 19 15 13 0 14 2 3 9 -11 7 -10 12 6 28
11 11 17 25 15 31 -2 7 1 12 7 12 6 0 10 3 9 8 0 4 1 14 5 22 3 8 11 32 17 53
6 20 16 37 21 37 8 0 25 32 27 53 1 4 8 15 17 24 9 8 14 22 11 30 -3 8 -1 11
4 8 6 -3 10 0 10 8 0 8 9 17 20 20 13 3 18 11 15 26 -2 12 1 21 6 21 6 0 17
17 26 38 8 20 35 68 59 105 24 37 44 72 44 78 0 6 5 7 10 4 5 -3 10 -2 10 3 0
5 11 25 24 45 13 19 22 38 19 41 -3 3 2 8 11 12 9 3 13 10 10 15 -3 5 2 6 10
3 10 -4 16 -1 16 7 1 19 56 90 64 82 6 -6 8 0 10 29 1 7 18 29 39 49 20 20 37
39 37 42 0 3 16 28 35 57 19 29 35 48 35 44 0 -5 8 3 17 16 10 14 18 27 18 30
0 11 45 63 50 58 7 -7 105 93 105 107 0 15 49 57 59 51 4 -3 13 6 19 19 6 13
28 37 49 52 21 16 39 34 41 41 3 15 39 52 45 46 3 -3 14 6 25 20 11 15 25 26
30 26 6 0 23 13 39 28 15 16 35 33 45 38 9 5 34 25 55 44 21 19 45 36 53 38 8
2 21 12 29 22 7 11 18 20 23 20 5 0 14 5 21 10 7 6 36 29 66 51 30 22 62 48
70 58 9 10 21 16 27 14 5 -2 21 8 34 22 13 14 28 25 34 25 6 0 27 14 46 31 19
16 54 39 78 51 23 11 42 24 42 29 0 5 7 9 15 9 8 0 15 5 15 12 0 6 3 8 6 5 4
-4 19 2 34 13 16 11 33 20 39 20 6 0 11 4 11 9 0 4 20 14 45 21 25 7 45 16 45
19 0 4 16 13 35 20 19 7 35 16 35 21 0 4 12 11 28 15 15 3 34 12 42 19 8 8 27
16 42 20 15 3 33 12 40 19 20 21 54 37 76 37 11 0 25 7 32 15 7 8 21 15 31 15
9 0 24 6 31 14 8 7 29 17 46 21 18 3 30 10 27 15 -3 5 3 7 12 6 10 -2 34 5 53
15 54 28 130 59 130 53 0 -3 10 4 22 15 11 11 25 18 30 15 4 -3 8 -1 8 5 0 6
6 8 14 5 7 -3 20 2 29 10 8 8 17 12 21 9 3 -3 12 0 21 7 8 7 15 10 15 6 0 -3
12 -1 28 5 15 6 36 12 47 13 31 4 67 16 110 36 52 25 154 49 188 46 15 -2 27
0 27 5 0 4 10 9 23 11 13 2 21 9 19 18 -3 11 1 10 16 -3 18 -16 20 -17 26 -1
5 14 9 14 23 3 9 -8 14 -9 10 -3 -9 15 34 27 47 14 14 -14 29 -12 20 3 -6 9
-4 9 8 -1 12 -9 17 -10 20 -1 2 7 35 13 83 15 44 2 96 6 117 9 40 7 74 10 213
20 49 4 91 7 92 9 5 5 110 -1 132 -8z"/>
<path d="M4768 9223 c7 -3 16 -2 19 1 4 3 -2 6 -13 5 -11 0 -14 -3 -6 -6z"/>
<path d="M5728 9193 c7 -3 16 -2 19 1 4 3 -2 6 -13 5 -11 0 -14 -3 -6 -6z"/>
<path d="M5048 8853 c45 -2 119 -2 165 0 45 1 8 3 -83 3 -91 0 -128 -2 -82 -3z"/>
<path d="M4818 8843 c17 -2 47 -2 65 0 17 2 3 4 -33 4 -36 0 -50 -2 -32 -4z"/>
<path d="M5363 8843 c15 -2 39 -2 55 0 15 2 2 4 -28 4 -30 0 -43 -2 -27 -4z"/>
<path d="M4708 8833 c12 -2 30 -2 40 0 9 3 -1 5 -23 4 -22 0 -30 -2 -17 -4z"/>
<path d="M5488 8833 c12 -2 30 -2 40 0 9 3 -1 5 -23 4 -22 0 -30 -2 -17 -4z"/>
<path d="M4623 8823 c9 -2 23 -2 30 0 6 3 -1 5 -18 5 -16 0 -22 -2 -12 -5z"/>
<path d="M5583 8823 c9 -2 23 -2 30 0 6 3 -1 5 -18 5 -16 0 -22 -2 -12 -5z"/>
<path d="M4543 8813 c9 -2 25 -2 35 0 9 3 1 5 -18 5 -19 0 -27 -2 -17 -5z"/>
<path d="M5663 8813 c9 -2 23 -2 30 0 6 3 -1 5 -18 5 -16 0 -22 -2 -12 -5z"/>
<path d="M4478 8803 c6 -2 18 -2 25 0 6 3 1 5 -13 5 -14 0 -19 -2 -12 -5z"/>
<path d="M5723 8803 c9 -2 23 -2 30 0 6 3 -1 5 -18 5 -16 0 -22 -2 -12 -5z"/>
<path d="M4380 8790 c-17 -6 -9 -7 25 -3 28 3 52 7 54 9 8 7 -54 2 -79 -6z"/>
<path d="M5788 8793 c6 -2 18 -2 25 0 6 3 1 5 -13 5 -14 0 -19 -2 -12 -5z"/>
<path d="M5838 8783 c6 -2 18 -2 25 0 6 3 1 5 -13 5 -14 0 -19 -2 -12 -5z"/>
<path d="M4318 8773 c6 -2 18 -2 25 0 6 3 1 5 -13 5 -14 0 -19 -2 -12 -5z"/>
<path d="M5888 8773 c6 -2 18 -2 25 0 6 3 1 5 -13 5 -14 0 -19 -2 -12 -5z"/>
<path d="M4268 8763 c6 -2 18 -2 25 0 6 3 1 5 -13 5 -14 0 -19 -2 -12 -5z"/>
<path d="M5938 8763 c7 -3 16 -2 19 1 4 3 -2 6 -13 5 -11 0 -14 -3 -6 -6z"/>
<path d="M5988 8753 c7 -3 16 -2 19 1 4 3 -2 6 -13 5 -11 0 -14 -3 -6 -6z"/>
<path d="M4198 8743 c7 -3 16 -2 19 1 4 3 -2 6 -13 5 -11 0 -14 -3 -6 -6z"/>
<path d="M6028 8743 c7 -3 16 -2 19 1 4 3 -2 6 -13 5 -11 0 -14 -3 -6 -6z"/>
<path d="M4158 8733 c7 -3 16 -2 19 1 4 3 -2 6 -13 5 -11 0 -14 -3 -6 -6z"/>
<path d="M6068 8733 c7 -3 16 -2 19 1 4 3 -2 6 -13 5 -11 0 -14 -3 -6 -6z"/>
<path d="M6108 8723 c7 -3 16 -2 19 1 4 3 -2 6 -13 5 -11 0 -14 -3 -6 -6z"/>
<path d="M4088 8713 c7 -3 16 -2 19 1 4 3 -2 6 -13 5 -11 0 -14 -3 -6 -6z"/>
<path d="M6185 8700 c11 -5 27 -9 35 -9 9 0 8 4 -5 9 -11 5 -27 9 -35 9 -9 0
-8 -4 5 -9z"/>
<path d="M4018 8693 c7 -3 16 -2 19 1 4 3 -2 6 -13 5 -11 0 -14 -3 -6 -6z"/>
<path d="M3880 8650 c-8 -5 -10 -10 -5 -10 6 0 17 5 25 10 8 5 11 10 5 10 -5
0 -17 -5 -25 -10z"/>
<path d="M6500 8590 c8 -5 20 -10 25 -10 6 0 3 5 -5 10 -8 5 -19 10 -25 10 -5
0 -3 -5 5 -10z"/>
<path d="M3630 8550 c-8 -5 -10 -10 -5 -10 6 0 17 5 25 10 8 5 11 10 5 10 -5
0 -17 -5 -25 -10z"/>
<path d="M6610 8545 c14 -8 30 -14 35 -14 6 0 -1 6 -15 14 -14 8 -29 14 -35
14 -5 0 1 -6 15 -14z"/>
<path d="M3488 8484 c-49 -24 -88 -46 -88 -49 0 -5 179 82 189 91 15 14 -26
-3 -101 -42z"/>
<path d="M6701 8506 c10 -9 129 -66 129 -61 0 5 -116 65 -126 65 -4 0 -5 -2
-3 -4z"/>
<path d="M5022 8463 c48 -2 129 -2 180 0 51 1 12 3 -87 3 -99 0 -141 -2 -93
-3z"/>
<path d="M4848 8453 c12 -2 32 -2 45 0 12 2 2 4 -23 4 -25 0 -35 -2 -22 -4z"/>
<path d="M5363 8453 c15 -2 39 -2 55 0 15 2 2 4 -28 4 -30 0 -43 -2 -27 -4z"/>
<path d="M4743 8443 c15 -2 37 -2 50 0 12 2 0 4 -28 4 -27 0 -38 -2 -22 -4z"/>
<path d="M5473 8443 c9 -2 25 -2 35 0 9 3 1 5 -18 5 -19 0 -27 -2 -17 -5z"/>
<path d="M4663 8433 c9 -2 25 -2 35 0 9 3 1 5 -18 5 -19 0 -27 -2 -17 -5z"/>
<path d="M5553 8433 c9 -2 23 -2 30 0 6 3 -1 5 -18 5 -16 0 -22 -2 -12 -5z"/>
<path d="M4598 8423 c6 -2 18 -2 25 0 6 3 1 5 -13 5 -14 0 -19 -2 -12 -5z"/>
<path d="M5623 8423 c9 -2 23 -2 30 0 6 3 -1 5 -18 5 -16 0 -22 -2 -12 -5z"/>
<path d="M3338 8404 c-38 -20 -36 -28 2 -9 17 9 30 18 30 20 0 7 -1 6 -32 -11z"/>
<path d="M4538 8413 c6 -2 18 -2 25 0 6 3 1 5 -13 5 -14 0 -19 -2 -12 -5z"/>
<path d="M5683 8413 c9 -2 23 -2 30 0 6 3 -1 5 -18 5 -16 0 -22 -2 -12 -5z"/>
<path d="M4488 8403 c6 -2 18 -2 25 0 6 3 1 5 -13 5 -14 0 -19 -2 -12 -5z"/>
<path d="M5738 8403 c6 -2 18 -2 25 0 6 3 1 5 -13 5 -14 0 -19 -2 -12 -5z"/>
<path d="M6900 8406 c0 -3 14 -12 30 -21 17 -9 30 -13 30 -11 0 3 -13 12 -30
21 -16 9 -30 13 -30 11z"/>
<path d="M4438 8393 c6 -2 18 -2 25 0 6 3 1 5 -13 5 -14 0 -19 -2 -12 -5z"/>
<path d="M5788 8393 c7 -3 16 -2 19 1 4 3 -2 6 -13 5 -11 0 -14 -3 -6 -6z"/>
<path d="M4398 8383 c7 -3 16 -2 19 1 4 3 -2 6 -13 5 -11 0 -14 -3 -6 -6z"/>
<path d="M5838 8383 c7 -3 16 -2 19 1 4 3 -2 6 -13 5 -11 0 -14 -3 -6 -6z"/>
<path d="M4348 8373 c6 -2 18 -2 25 0 6 3 1 5 -13 5 -14 0 -19 -2 -12 -5z"/>
<path d="M5888 8373 c7 -3 16 -2 19 1 4 3 -2 6 -13 5 -11 0 -14 -3 -6 -6z"/>
<path d="M3254 8354 c-18 -14 -18 -15 4 -4 12 6 22 13 22 15 0 8 -5 6 -26 -11z"/>
<path d="M4308 8363 c7 -3 16 -2 19 1 4 3 -2 6 -13 5 -11 0 -14 -3 -6 -6z"/>
<path d="M5928 8363 c7 -3 16 -2 19 1 4 3 -2 6 -13 5 -11 0 -14 -3 -6 -6z"/>
<path d="M6970 8366 c0 -3 9 -10 20 -16 11 -6 20 -8 20 -6 0 3 -9 10 -20 16
-11 6 -20 8 -20 6z"/>
<path d="M4268 8353 c7 -3 16 -2 19 1 4 3 -2 6 -13 5 -11 0 -14 -3 -6 -6z"/>
<path d="M5998 8343 c7 -3 16 -2 19 1 4 3 -2 6 -13 5 -11 0 -14 -3 -6 -6z"/>
<path d="M4168 8323 c7 -3 16 -2 19 1 4 3 -2 6 -13 5 -11 0 -14 -3 -6 -6z"/>
<path d="M6068 8323 c7 -3 16 -2 19 1 4 3 -2 6 -13 5 -11 0 -14 -3 -6 -6z"/>
<path d="M7050 8316 c0 -3 9 -10 20 -16 11 -6 20 -8 20 -6 0 3 -9 10 -20 16
-11 6 -20 8 -20 6z"/>
<path d="M6145 8300 c27 -12 43 -12 25 0 -8 5 -22 9 -30 9 -10 0 -8 -3 5 -9z"/>
<path d="M4050 8290 c-18 -12 -2 -12 25 0 13 6 15 9 5 9 -8 0 -22 -4 -30 -9z"/>
<path d="M3092 8255 c-28 -20 -52 -38 -52 -40 0 -3 25 11 55 31 48 32 62 44
52 44 -1 0 -26 -16 -55 -35z"/>
<path d="M3955 8255 c-25 -12 -26 -14 -5 -9 28 7 60 23 45 23 -5 0 -23 -6 -40
-14z"/>
<path d="M6290 8250 c8 -5 20 -10 25 -10 6 0 3 5 -5 10 -8 5 -19 10 -25 10 -5
0 -3 -5 5 -10z"/>
<path d="M7160 8247 c0 -3 12 -12 26 -22 15 -9 23 -12 20 -6 -7 11 -46 35 -46
28z"/>
<path d="M3890 8230 c-8 -5 -10 -10 -5 -10 6 0 17 5 25 10 8 5 11 10 5 10 -5
0 -17 -5 -25 -10z"/>
<path d="M6370 8220 c8 -5 20 -10 25 -10 6 0 3 5 -5 10 -8 5 -19 10 -25 10 -5
0 -3 -5 5 -10z"/>
<path d="M3820 8200 c-8 -5 -10 -10 -5 -10 6 0 17 5 25 10 8 5 11 10 5 10 -5
0 -17 -5 -25 -10z"/>
<path d="M6440 8190 c8 -5 20 -10 25 -10 6 0 3 5 -5 10 -8 5 -19 10 -25 10 -5
0 -3 -5 5 -10z"/>
<path d="M7250 8186 c0 -2 8 -10 18 -17 15 -13 16 -12 3 4 -13 16 -21 21 -21
13z"/>
<path d="M3750 8170 c-8 -5 -10 -10 -5 -10 6 0 17 5 25 10 8 5 11 10 5 10 -5
0 -17 -5 -25 -10z"/>
<path d="M2949 8153 c-13 -16 -12 -17 4 -4 9 7 17 15 17 17 0 8 -8 3 -21 -13z"/>
<path d="M6501 8166 c10 -9 209 -106 209 -101 0 5 -196 105 -206 105 -4 0 -5
-2 -3 -4z"/>
<path d="M7330 8127 c0 -3 17 -17 37 -33 20 -15 33 -23 29 -16 -8 13 -66 56
-66 49z"/>
<path d="M2845 8074 l-40 -36 43 32 c36 27 49 40 40 40 -2 0 -21 -16 -43 -36z"/>
<path d="M3585 8090 c-3 -6 1 -7 9 -4 18 7 21 14 7 14 -6 0 -13 -4 -16 -10z"/>
<path d="M3508 8049 c-21 -11 -38 -22 -38 -24 0 -3 18 4 40 15 22 11 40 23 40
25 0 7 0 7 -42 -16z"/>
<path d="M7410 8066 c0 -2 8 -10 18 -17 15 -13 16 -12 3 4 -13 16 -21 21 -21
13z"/>
<path d="M2730 7979 l-65 -61 68 57 c59 51 74 65 65 65 -2 0 -32 -28 -68 -61z"/>
<path d="M6760 8036 c0 -3 9 -10 20 -16 11 -6 20 -8 20 -6 0 3 -9 10 -20 16
-11 6 -20 8 -20 6z"/>
<path d="M7460 8028 c0 -2 33 -33 73 -68 39 -35 61 -51 47 -36 -26 30 -120
111 -120 104z"/>
<path d="M3434 8004 c-18 -14 -18 -15 4 -4 12 6 22 13 22 15 0 8 -5 6 -26 -11z"/>
<path d="M3384 7974 c-18 -14 -18 -15 4 -4 12 6 22 13 22 15 0 8 -5 6 -26 -11z"/>
<path d="M6860 7976 c0 -3 9 -10 20 -16 11 -6 20 -8 20 -6 0 3 -9 10 -20 16
-11 6 -20 8 -20 6z"/>
<path d="M3302 7925 c-28 -20 -52 -38 -52 -40 0 -3 25 11 55 31 48 32 62 44
52 44 -1 0 -26 -16 -55 -35z"/>
<path d="M6914 7941 c7 -11 46 -35 46 -28 0 3 -12 12 -26 22 -15 9 -23 12 -20
6z"/>
<path d="M2505 7770 c-82 -82 -147 -150 -145 -150 3 0 73 68 155 150 82 83
147 150 145 150 -3 0 -73 -67 -155 -150z"/>
<path d="M7000 7886 c0 -2 8 -10 18 -17 15 -13 16 -12 3 4 -13 16 -21 21 -21
13z"/>
<path d="M7730 7775 c63 -63 117 -115 120 -115 2 0 -47 52 -110 115 -63 63
-117 115 -120 115 -2 0 47 -52 110 -115z"/>
<path d="M3159 7823 c-13 -16 -12 -17 4 -4 9 7 17 15 17 17 0 8 -8 3 -21 -13z"/>
<path d="M7070 7837 c0 -3 26 -24 58 -48 31 -23 52 -36 45 -28 -14 17 -103 83
-103 76z"/>
<path d="M3119 7793 c-13 -16 -12 -17 4 -4 16 13 21 21 13 21 -2 0 -10 -8 -17
-17z"/>
<path d="M3079 7763 c-13 -16 -12 -17 4 -4 16 13 21 21 13 21 -2 0 -10 -8 -17
-17z"/>
<path d="M3000 7699 l-55 -51 58 47 c50 42 64 55 55 55 -2 0 -28 -23 -58 -51z"/>
<path d="M7205 7730 c10 -11 20 -20 23 -20 3 0 -3 9 -13 20 -10 11 -20 20 -23
20 -3 0 3 -9 13 -20z"/>
<path d="M7260 7685 c13 -14 26 -25 28 -25 3 0 -5 11 -18 25 -13 14 -26 25
-28 25 -3 0 5 -11 18 -25z"/>
<path d="M7435 7520 c71 -71 132 -130 135 -130 2 0 -54 59 -125 130 -71 72
-132 130 -135 130 -2 0 54 -58 125 -130z"/>
<path d="M2774 7488 c-82 -84 -169 -178 -193 -208 -38 -49 -37 -47 15 10 32
36 121 129 198 208 77 78 138 142 135 142 -3 0 -73 -69 -155 -152z"/>
<path d="M7900 7595 c13 -14 26 -25 28 -25 3 0 -5 11 -18 25 -13 14 -26 25
-28 25 -3 0 5 -11 18 -25z"/>
<path d="M2324 7578 l-29 -33 33 29 c17 17 32 31 32 33 0 8 -8 1 -36 -29z"/>
<path d="M7965 7520 c10 -11 20 -20 23 -20 3 0 -3 9 -13 20 -10 11 -20 20 -23
20 -3 0 3 -9 13 -20z"/>
<path d="M2264 7508 l-19 -23 23 19 c12 11 22 21 22 23 0 8 -8 2 -26 -19z"/>
<path d="M4408 7493 c7 -3 16 -2 19 1 4 3 -2 6 -13 5 -11 0 -14 -3 -6 -6z"/>
<path d="M4553 7493 c43 -2 110 -2 150 0 40 1 5 3 -78 3 -82 0 -115 -2 -72 -3z"/>
<path d="M4828 7493 c17 -2 47 -2 65 0 17 2 3 4 -33 4 -36 0 -50 -2 -32 -4z"/>
<path d="M4943 7493 c9 -2 25 -2 35 0 9 3 1 5 -18 5 -19 0 -27 -2 -17 -5z"/>
<path d="M5008 7493 c6 -2 18 -2 25 0 6 3 1 5 -13 5 -14 0 -19 -2 -12 -5z"/>
<path d="M5598 7493 c6 -2 18 -2 25 0 6 3 1 5 -13 5 -14 0 -19 -2 -12 -5z"/>
<path d="M5678 7493 c6 -2 18 -2 25 0 6 3 1 5 -13 5 -14 0 -19 -2 -12 -5z"/>
<path d="M6018 7493 c12 -2 32 -2 45 0 12 2 2 4 -23 4 -25 0 -35 -2 -22 -4z"/>
<path d="M8005 7470 c10 -11 20 -20 23 -20 3 0 -3 9 -13 20 -10 11 -20 20 -23
20 -3 0 3 -9 13 -20z"/>
<path d="M2224 7458 l-19 -23 23 19 c21 18 27 26 19 26 -2 0 -12 -10 -23 -22z"/>
<path d="M8030 7436 c0 -2 8 -10 18 -17 15 -13 16 -12 3 4 -13 16 -21 21 -21
13z"/>
<path d="M2189 7413 c-13 -16 -12 -17 4 -4 16 13 21 21 13 21 -2 0 -10 -8 -17
-17z"/>
<path d="M8060 7396 c0 -2 8 -10 18 -17 15 -13 16 -12 3 4 -13 16 -21 21 -21
13z"/>
<path d="M2159 7373 c-13 -16 -12 -17 4 -4 9 7 17 15 17 17 0 8 -8 3 -21 -13z"/>
<path d="M7600 7345 c19 -19 36 -35 39 -35 3 0 -10 16 -29 35 -19 19 -36 35
-39 35 -3 0 10 -16 29 -35z"/>
<path d="M8090 7356 c0 -2 8 -10 18 -17 15 -13 16 -12 3 4 -13 16 -21 21 -21
13z"/>
<path d="M2129 7333 c-13 -16 -12 -17 4 -4 9 7 17 15 17 17 0 8 -8 3 -21 -13z"/>
<path d="M8140 7290 c12 -16 24 -30 26 -30 3 0 -4 14 -16 30 -12 17 -24 30
-26 30 -3 0 4 -13 16 -30z"/>
<path d="M7655 7280 c10 -11 20 -20 23 -20 3 0 -3 9 -13 20 -10 11 -20 20 -23
20 -3 0 3 -9 13 -20z"/>
<path d="M2022 7178 c-46 -68 -82 -129 -69 -118 11 10 127 190 122 190 -2 0
-26 -33 -53 -72z"/>
<path d="M7705 7220 c10 -11 20 -20 23 -20 3 0 -3 9 -13 20 -10 11 -20 20 -23
20 -3 0 3 -9 13 -20z"/>
<path d="M2519 7203 c-13 -16 -12 -17 4 -4 9 7 17 15 17 17 0 8 -8 3 -21 -13z"/>
<path d="M8200 7200 c6 -11 13 -20 16 -20 2 0 0 9 -6 20 -6 11 -13 20 -16 20
-2 0 0 -9 6 -20z"/>
<path d="M7730 7186 c0 -2 8 -10 18 -17 15 -13 16 -12 3 4 -13 16 -21 21 -21
13z"/>
<path d="M2489 7163 c-13 -16 -12 -17 4 -4 9 7 17 15 17 17 0 8 -8 3 -21 -13z"/>
<path d="M7760 7146 c0 -2 8 -10 18 -17 15 -13 16 -12 3 4 -13 16 -21 21 -21
13z"/>
<path d="M2459 7123 c-13 -16 -12 -17 4 -4 16 13 21 21 13 21 -2 0 -10 -8 -17
-17z"/>
<path d="M7790 7106 c0 -2 8 -10 18 -17 15 -13 16 -12 3 4 -13 16 -21 21 -21
13z"/>
<path d="M2420 7070 c-12 -16 -19 -30 -16 -30 2 0 14 14 26 30 12 17 19 30 16
30 -2 0 -14 -13 -26 -30z"/>
<path d="M8280 7070 c6 -11 13 -20 16 -20 2 0 0 9 -6 20 -6 11 -13 20 -16 20
-2 0 0 -9 6 -20z"/>
<path d="M7835 7046 c10 -14 19 -26 22 -26 7 0 -17 39 -28 46 -6 3 -3 -5 6
-20z"/>
<path d="M1930 7030 c-6 -11 -8 -20 -6 -20 3 0 10 9 16 20 6 11 8 20 6 20 -3
0 -10 -9 -16 -20z"/>
<path d="M8310 7020 c6 -11 13 -20 16 -20 2 0 0 9 -6 20 -6 11 -13 20 -16 20
-2 0 0 -9 6 -20z"/>
<path d="M7885 6973 c15 -24 30 -43 32 -43 7 0 -31 61 -46 73 -8 7 -2 -7 14
-30z"/>
<path d="M1890 6960 c-6 -11 -8 -20 -6 -20 3 0 10 9 16 20 6 11 8 20 6 20 -3
0 -10 -9 -16 -20z"/>
<path d="M2343 6958 c-15 -20 -25 -38 -20 -38 3 0 12 11 21 25 17 26 16 35 -1
13z"/>
<path d="M8412 6825 c34 -68 64 -123 66 -121 4 5 -116 246 -123 246 -3 0 23
-56 57 -125z"/>
<path d="M2300 6890 c-6 -11 -8 -20 -6 -20 3 0 10 9 16 20 6 11 8 20 6 20 -3
0 -10 -9 -16 -20z"/>
<path d="M7950 6870 c6 -11 13 -20 16 -20 2 0 0 9 -6 20 -6 11 -13 20 -16 20
-2 0 0 -9 6 -20z"/>
<path d="M7990 6800 c6 -11 13 -20 16 -20 2 0 0 9 -6 20 -6 11 -13 20 -16 20
-2 0 0 -9 6 -20z"/>
<path d="M1795 6779 c-9 -17 -15 -33 -13 -35 3 -2 12 12 21 31 21 43 13 47 -8
4z"/>
<path d="M1765 6719 c-4 -6 -5 -12 -2 -15 2 -3 7 2 10 11 7 17 1 20 -8 4z"/>
<path d="M8072 6645 c23 -46 44 -83 46 -81 4 5 -76 166 -83 166 -3 0 14 -38
37 -85z"/>
<path d="M2154 6629 c-19 -39 -34 -73 -32 -75 2 -2 21 30 41 71 20 41 35 75
32 75 -3 0 -21 -32 -41 -71z"/>
<path d="M1736 6655 c-9 -26 -7 -32 5 -12 6 10 9 21 6 23 -2 3 -7 -2 -11 -11z"/>
<path d="M8520 6595 c0 -5 5 -17 10 -25 5 -8 10 -10 10 -5 0 6 -5 17 -10 25
-5 8 -10 11 -10 5z"/>
<path d="M8540 6545 c0 -5 5 -17 10 -25 5 -8 10 -10 10 -5 0 6 -5 17 -10 25
-5 8 -10 11 -10 5z"/>
<path d="M2092 6495 c-17 -37 -14 -45 4 -12 9 16 14 31 11 33 -2 2 -9 -7 -15
-21z"/>
<path d="M8150 6485 c0 -5 5 -17 10 -25 5 -8 10 -10 10 -5 0 6 -5 17 -10 25
-5 8 -10 11 -10 5z"/>
<path d="M8570 6465 c0 -5 5 -17 10 -25 5 -8 10 -10 10 -5 0 6 -5 17 -10 25
-5 8 -10 11 -10 5z"/>
<path d="M2066 6435 c-9 -26 -7 -32 5 -12 6 10 9 21 6 23 -2 3 -7 -2 -11 -11z"/>
<path d="M8180 6415 c0 -5 5 -17 10 -25 5 -8 10 -10 10 -5 0 6 -5 17 -10 25
-5 8 -10 11 -10 5z"/>
<path d="M2046 6385 c-9 -26 -7 -32 5 -12 6 10 9 21 6 23 -2 3 -7 -2 -11 -11z"/>
<path d="M4973 6383 c9 -2 23 -2 30 0 6 3 -1 5 -18 5 -16 0 -22 -2 -12 -5z"/>
<path d="M5378 6383 c12 -2 32 -2 45 0 12 2 2 4 -23 4 -25 0 -35 -2 -22 -4z"/>
<path d="M5533 6383 c15 -2 37 -2 50 0 12 2 0 4 -28 4 -27 0 -38 -2 -22 -4z"/>
<path d="M5708 6383 c12 -2 30 -2 40 0 9 3 -1 5 -23 4 -22 0 -30 -2 -17 -4z"/>
<path d="M2026 6335 c-9 -26 -7 -32 5 -12 6 10 9 21 6 23 -2 3 -7 -2 -11 -11z"/>
<path d="M1581 6224 c0 -11 3 -14 6 -6 3 7 2 16 -1 19 -3 4 -6 -2 -5 -13z"/>
<path d="M8651 6224 c0 -11 3 -14 6 -6 3 7 2 16 -1 19 -3 4 -6 -2 -5 -13z"/>
<path d="M8251 6225 c1 -19 18 -51 18 -35 0 8 -4 22 -9 30 -5 8 -9 11 -9 5z"/>
<path d="M1561 6154 c0 -11 3 -14 6 -6 3 7 2 16 -1 19 -3 4 -6 -2 -5 -13z"/>
<path d="M8671 6154 c0 -11 3 -14 6 -6 3 7 2 16 -1 19 -3 4 -6 -2 -5 -13z"/>
<path d="M1551 6114 c0 -11 3 -14 6 -6 3 7 2 16 -1 19 -3 4 -6 -2 -5 -13z"/>
<path d="M8681 6114 c0 -11 3 -14 6 -6 3 7 2 16 -1 19 -3 4 -6 -2 -5 -13z"/>
<path d="M1951 6104 c0 -11 3 -14 6 -6 3 7 2 16 -1 19 -3 4 -6 -2 -5 -13z"/>
<path d="M8291 6094 c0 -11 3 -14 6 -6 3 7 2 16 -1 19 -3 4 -6 -2 -5 -13z"/>
<path d="M8691 6074 c0 -11 3 -14 6 -6 3 7 2 16 -1 19 -3 4 -6 -2 -5 -13z"/>
<path d="M8301 6054 c0 -11 3 -14 6 -6 3 7 2 16 -1 19 -3 4 -6 -2 -5 -13z"/>
<path d="M8701 6034 c0 -11 3 -14 6 -6 3 7 2 16 -1 19 -3 4 -6 -2 -5 -13z"/>
<path d="M8311 6014 c0 -11 3 -14 6 -6 3 7 2 16 -1 19 -3 4 -6 -2 -5 -13z"/>
<path d="M1521 5994 c0 -11 3 -14 6 -6 3 7 2 16 -1 19 -3 4 -6 -2 -5 -13z"/>
<path d="M1921 5994 c0 -11 3 -14 6 -6 3 7 2 16 -1 19 -3 4 -6 -2 -5 -13z"/>
<path d="M8712 5995 c0 -11 4 -31 8 -45 6 -20 8 -21 8 -5 0 11 -4 31 -8 45 -6
20 -8 21 -8 5z"/>
<path d="M8321 5974 c0 -11 3 -14 6 -6 3 7 2 16 -1 19 -3 4 -6 -2 -5 -13z"/>
<path d="M1511 5954 c0 -11 3 -14 6 -6 3 7 2 16 -1 19 -3 4 -6 -2 -5 -13z"/>
<path d="M1911 5954 c0 -11 3 -14 6 -6 3 7 2 16 -1 19 -3 4 -6 -2 -5 -13z"/>
<path d="M8331 5934 c0 -11 3 -14 6 -6 3 7 2 16 -1 19 -3 4 -6 -2 -5 -13z"/>
<path d="M1901 5914 c0 -11 3 -14 6 -6 3 7 2 16 -1 19 -3 4 -6 -2 -5 -13z"/>
<path d="M1501 5904 c0 -11 3 -14 6 -6 3 7 2 16 -1 19 -3 4 -6 -2 -5 -13z"/>
<path d="M8732 5900 c0 -14 2 -19 5 -12 2 6 2 18 0 25 -3 6 -5 1 -5 -13z"/>
<path d="M8341 5894 c0 -11 3 -14 6 -6 3 7 2 16 -1 19 -3 4 -6 -2 -5 -13z"/>
<path d="M1892 5870 c0 -14 2 -19 5 -12 2 6 2 18 0 25 -3 6 -5 1 -5 -13z"/>
<path d="M1492 5860 c0 -14 2 -19 5 -12 2 6 2 18 0 25 -3 6 -5 1 -5 -13z"/>
<path d="M8351 5844 c0 -11 3 -14 6 -6 3 7 2 16 -1 19 -3 4 -6 -2 -5 -13z"/>
<path d="M8742 5840 c0 -14 2 -19 5 -12 2 6 2 18 0 25 -3 6 -5 1 -5 -13z"/>
<path d="M1882 5820 c0 -14 2 -19 5 -12 2 6 2 18 0 25 -3 6 -5 1 -5 -13z"/>
<path d="M1482 5810 c0 -14 2 -19 5 -12 2 6 2 18 0 25 -3 6 -5 1 -5 -13z"/>
<path d="M8362 5790 c0 -14 2 -19 5 -12 2 6 2 18 0 25 -3 6 -5 1 -5 -13z"/>
<path d="M8752 5785 c0 -16 2 -22 5 -12 2 9 2 23 0 30 -3 6 -5 -1 -5 -18z"/>
<path d="M1872 5770 c0 -14 2 -19 5 -12 2 6 2 18 0 25 -3 6 -5 1 -5 -13z"/>
<path d="M1472 5740 c0 -14 2 -19 5 -12 2 6 2 18 0 25 -3 6 -5 1 -5 -13z"/>
<path d="M8372 5740 c0 -14 4 -38 8 -55 7 -27 8 -27 8 -5 0 14 -4 39 -8 55 -7
27 -8 27 -8 5z"/>
<path d="M8762 5725 c0 -16 2 -22 5 -12 2 9 2 23 0 30 -3 6 -5 -1 -5 -18z"/>
<path d="M1862 5720 c0 -14 2 -19 5 -12 2 6 2 18 0 25 -3 6 -5 1 -5 -13z"/>
<path d="M1462 5670 c0 -19 2 -27 5 -17 2 9 2 25 0 35 -3 9 -5 1 -5 -18z"/>
<path d="M1852 5655 c0 -16 2 -22 5 -12 2 9 2 23 0 30 -3 6 -5 -1 -5 -18z"/>
<path d="M8772 5650 c0 -19 2 -27 5 -17 2 9 2 25 0 35 -3 9 -5 1 -5 -18z"/>
<path d="M8392 5615 c0 -16 2 -22 5 -12 2 9 2 23 0 30 -3 6 -5 -1 -5 -18z"/>
<path d="M1452 5595 c0 -16 2 -22 5 -12 2 9 2 23 0 30 -3 6 -5 -1 -5 -18z"/>
<path d="M1842 5595 c0 -16 2 -22 5 -12 2 9 2 23 0 30 -3 6 -5 -1 -5 -18z"/>
<path d="M8782 5560 c0 -19 2 -27 5 -17 2 9 2 25 0 35 -3 9 -5 1 -5 -18z"/>
<path d="M8403 5545 c0 -22 2 -30 4 -17 2 12 2 30 0 40 -3 9 -5 -1 -4 -23z"/>
<path d="M1832 5525 c0 -16 2 -22 5 -12 2 9 2 23 0 30 -3 6 -5 -1 -5 -18z"/>
<path d="M1442 5500 c0 -19 2 -27 5 -17 2 9 2 25 0 35 -3 9 -5 1 -5 -18z"/>
<path d="M8793 5455 c0 -27 2 -38 4 -22 2 15 2 37 0 50 -2 12 -4 0 -4 -28z"/>
<path d="M8413 5450 c0 -25 2 -35 4 -22 2 12 2 32 0 45 -2 12 -4 2 -4 -23z"/>
<path d="M1823 5435 c0 -22 2 -30 4 -17 2 12 2 30 0 40 -3 9 -5 -1 -4 -23z"/>
<path d="M1433 5370 c0 -36 2 -50 4 -32 2 17 2 47 0 65 -2 17 -4 3 -4 -33z"/>
<path d="M1813 5300 c0 -41 2 -58 4 -37 2 20 2 54 0 75 -2 20 -4 3 -4 -38z"/>
<path d="M8423 5290 c0 -41 2 -58 4 -37 2 20 2 54 0 75 -2 20 -4 3 -4 -38z"/>
<path d="M8804 5130 c0 -124 2 -174 3 -112 2 61 2 163 0 225 -1 61 -3 11 -3
-113z"/>
<path d="M1424 5120 c0 -69 1 -97 3 -62 2 34 2 90 0 125 -2 34 -3 6 -3 -63z"/>
<path d="M9201 5104 c0 -11 3 -14 6 -6 3 7 2 16 -1 19 -3 4 -6 -2 -5 -13z"/>
<path d="M1813 4950 c0 -41 2 -58 4 -37 2 20 2 54 0 75 -2 20 -4 3 -4 -38z"/>
<path d="M8423 4925 c0 -33 2 -45 4 -27 2 18 2 45 0 60 -2 15 -4 0 -4 -33z"/>
<path d="M1433 4885 c0 -33 2 -45 4 -27 2 18 2 45 0 60 -2 15 -4 0 -4 -33z"/>
<path d="M8793 4825 c0 -27 2 -38 4 -22 2 15 2 37 0 50 -2 12 -4 0 -4 -28z"/>
<path d="M1823 4810 c0 -25 2 -35 4 -22 2 12 2 32 0 45 -2 12 -4 2 -4 -23z"/>
<path d="M8413 4775 c0 -22 2 -30 4 -17 2 12 2 30 0 40 -3 9 -5 -1 -4 -23z"/>
<path d="M1443 4755 c0 -27 2 -38 4 -22 2 15 2 37 0 50 -2 12 -4 0 -4 -28z"/>
<path d="M8783 4725 c0 -22 2 -30 4 -17 2 12 2 30 0 40 -3 9 -5 -1 -4 -23z"/>
<path d="M1832 4720 c0 -19 2 -27 5 -17 2 9 2 25 0 35 -3 9 -5 1 -5 -18z"/>
<path d="M8402 4690 c0 -19 2 -27 5 -17 2 9 2 25 0 35 -3 9 -5 1 -5 -18z"/>
<path d="M1453 4655 c0 -22 2 -30 4 -17 2 12 2 30 0 40 -3 9 -5 -1 -4 -23z"/>
<path d="M1842 4645 c0 -16 2 -22 5 -12 2 9 2 23 0 30 -3 6 -5 -1 -5 -18z"/>
<path d="M8772 4630 c0 -19 2 -27 5 -17 2 9 2 25 0 35 -3 9 -5 1 -5 -18z"/>
<path d="M8392 4615 c0 -16 2 -22 5 -12 2 9 2 23 0 30 -3 6 -5 -1 -5 -18z"/>
<path d="M1462 4580 c0 -19 2 -27 5 -17 2 9 2 25 0 35 -3 9 -5 1 -5 -18z"/>
<path d="M1851 4584 c0 -11 3 -14 6 -6 3 7 2 16 -1 19 -3 4 -6 -2 -5 -13z"/>
<path d="M5978 4573 c7 -3 16 -2 19 1 4 3 -2 6 -13 5 -11 0 -14 -3 -6 -6z"/>
<path d="M8382 4555 c0 -16 2 -22 5 -12 2 9 2 23 0 30 -3 6 -5 -1 -5 -18z"/>
<path d="M8762 4555 c0 -16 2 -22 5 -12 2 9 2 23 0 30 -3 6 -5 -1 -5 -18z"/>
<path d="M1862 4530 c0 -14 2 -19 5 -12 2 6 2 18 0 25 -3 6 -5 1 -5 -13z"/>
<path d="M1472 4510 c0 -14 2 -19 5 -12 2 6 2 18 0 25 -3 6 -5 1 -5 -13z"/>
<path d="M8371 4494 c0 -11 3 -14 6 -6 3 7 2 16 -1 19 -3 4 -6 -2 -5 -13z"/>
<path d="M8752 4490 c0 -14 2 -19 5 -12 2 6 2 18 0 25 -3 6 -5 1 -5 -13z"/>
<path d="M1871 4474 c0 -11 3 -14 6 -6 3 7 2 16 -1 19 -3 4 -6 -2 -5 -13z"/>
<path d="M1482 4455 c0 -16 2 -22 5 -12 2 9 2 23 0 30 -3 6 -5 -1 -5 -18z"/>
<path d="M8361 4444 c0 -11 3 -14 6 -6 3 7 2 16 -1 19 -3 4 -6 -2 -5 -13z"/>
<path d="M8742 4430 c0 -14 2 -19 5 -12 2 6 2 18 0 25 -3 6 -5 1 -5 -13z"/>
<path d="M1881 4424 c0 -11 3 -14 6 -6 3 7 2 16 -1 19 -3 4 -6 -2 -5 -13z"/>
<path d="M1492 4400 c0 -14 2 -19 5 -12 2 6 2 18 0 25 -3 6 -5 1 -5 -13z"/>
<path d="M1891 4384 c0 -11 3 -14 6 -6 3 7 2 16 -1 19 -3 4 -6 -2 -5 -13z"/>
<path d="M8731 4384 c0 -11 3 -14 6 -6 3 7 2 16 -1 19 -3 4 -6 -2 -5 -13z"/>
<path d="M1502 4350 c0 -14 2 -19 5 -12 2 6 2 18 0 25 -3 6 -5 1 -5 -13z"/>
<path d="M1902 4345 c0 -11 3 -29 8 -40 11 -25 11 1 0 35 -6 20 -8 21 -8 5z"/>
<path d="M8721 4334 c0 -11 3 -14 6 -6 3 7 2 16 -1 19 -3 4 -6 -2 -5 -13z"/>
<path d="M1511 4304 c0 -11 3 -14 6 -6 3 7 2 16 -1 19 -3 4 -6 -2 -5 -13z"/>
<path d="M8711 4294 c0 -11 3 -14 6 -6 3 7 2 16 -1 19 -3 4 -6 -2 -5 -13z"/>
<path d="M8321 4274 c0 -11 3 -14 6 -6 3 7 2 16 -1 19 -3 4 -6 -2 -5 -13z"/>
<path d="M1522 4260 c0 -14 2 -19 5 -12 2 6 2 18 0 25 -3 6 -5 1 -5 -13z"/>
<path d="M1921 4264 c0 -11 3 -14 6 -6 3 7 2 16 -1 19 -3 4 -6 -2 -5 -13z"/>
<path d="M8701 4244 c0 -11 3 -14 6 -6 3 7 2 16 -1 19 -3 4 -6 -2 -5 -13z"/>
<path d="M1931 4224 c0 -11 3 -14 6 -6 3 7 2 16 -1 19 -3 4 -6 -2 -5 -13z"/>
<path d="M1951 4154 c0 -11 3 -14 6 -6 3 7 2 16 -1 19 -3 4 -6 -2 -5 -13z"/>
<path d="M8281 4134 c0 -11 3 -14 6 -6 3 7 2 16 -1 19 -3 4 -6 -2 -5 -13z"/>
<path d="M8671 4134 c0 -11 3 -14 6 -6 3 7 2 16 -1 19 -3 4 -6 -2 -5 -13z"/>
<path d="M1561 4114 c0 -11 3 -14 6 -6 3 7 2 16 -1 19 -3 4 -6 -2 -5 -13z"/>
<path d="M8266 4095 c-9 -26 -7 -32 5 -12 6 10 9 21 6 23 -2 3 -7 -2 -11 -11z"/>
<path d="M8661 4094 c0 -11 3 -14 6 -6 3 7 2 16 -1 19 -3 4 -6 -2 -5 -13z"/>
<path d="M1581 4050 c0 -8 4 -24 9 -35 5 -13 9 -14 9 -5 0 8 -4 24 -9 35 -5
13 -9 14 -9 5z"/>
<path d="M8622 3973 c-15 -48 -8 -55 8 -8 7 20 10 38 8 41 -3 2 -10 -13 -16
-33z"/>
<path d="M1610 3955 c0 -5 5 -17 10 -25 5 -8 10 -10 10 -5 0 6 -5 17 -10 25
-5 8 -10 11 -10 5z"/>
<path d="M2030 3925 c0 -5 5 -17 10 -25 5 -8 10 -10 10 -5 0 6 -5 17 -10 25
-5 8 -10 11 -10 5z"/>
<path d="M1631 3900 c0 -8 4 -22 9 -30 12 -18 12 -2 0 25 -6 13 -9 15 -9 5z"/>
<path d="M2054 3870 c9 -32 39 -101 43 -97 2 3 -8 29 -22 58 -14 30 -23 47
-21 39z"/>
<path d="M8571 3829 c-6 -18 -9 -34 -7 -36 2 -2 9 10 15 28 6 18 9 34 7 36 -2
2 -9 -10 -15 -28z"/>
<path d="M4537 3789 c7 -7 15 -10 18 -7 3 3 -2 9 -12 12 -14 6 -15 5 -6 -5z"/>
<path d="M8146 3785 c-9 -26 -7 -32 5 -12 6 10 9 21 6 23 -2 3 -7 -2 -11 -11z"/>
<path d="M8546 3765 c-9 -26 -7 -32 5 -12 6 10 9 21 6 23 -2 3 -7 -2 -11 -11z"/>
<path d="M1680 3765 c0 -5 5 -17 10 -25 5 -8 10 -10 10 -5 0 6 -5 17 -10 25
-5 8 -10 11 -10 5z"/>
<path d="M8526 3715 c-9 -26 -7 -32 5 -12 6 10 9 21 6 23 -2 3 -7 -2 -11 -11z"/>
<path d="M2120 3716 c0 -10 80 -166 85 -166 5 0 -72 159 -81 169 -2 2 -4 1 -4
-3z"/>
<path d="M1711 3695 c0 -5 6 -21 14 -35 8 -14 14 -20 14 -15 0 6 -6 21 -14 35
-8 14 -14 21 -14 15z"/>
<path d="M1761 3585 c0 -5 8 -26 19 -45 11 -19 19 -30 19 -25 0 6 -8 26 -19
45 -11 19 -19 31 -19 25z"/>
<path d="M8457 3555 c-24 -50 -20 -58 4 -12 11 22 19 41 17 43 -3 2 -12 -12
-21 -31z"/>
<path d="M8005 3500 c-9 -16 -13 -30 -11 -30 3 0 12 14 21 30 9 17 13 30 11
30 -3 0 -12 -13 -21 -30z"/>
<path d="M2235 3490 c9 -16 18 -30 21 -30 2 0 -2 14 -11 30 -9 17 -18 30 -21
30 -2 0 2 -13 11 -30z"/>
<path d="M7970 3440 c-6 -11 -8 -20 -6 -20 3 0 10 9 16 20 6 11 8 20 6 20 -3
0 -10 -9 -16 -20z"/>
<path d="M2270 3430 c6 -11 13 -20 16 -20 2 0 0 9 -6 20 -6 11 -13 20 -16 20
-2 0 0 -9 6 -20z"/>
<path d="M1860 3380 c17 -33 33 -60 35 -60 3 0 -8 27 -25 60 -17 33 -33 60
-35 60 -3 0 8 -27 25 -60z"/>
<path d="M8395 3429 c-4 -6 -5 -12 -2 -15 2 -3 7 2 10 11 7 17 1 20 -8 4z"/>
<path d="M2300 3380 c6 -11 13 -20 16 -20 2 0 0 9 -6 20 -6 11 -13 20 -16 20
-2 0 0 -9 6 -20z"/>
<path d="M8360 3360 c-11 -22 -18 -40 -15 -40 2 0 14 18 25 40 11 22 18 40 15
40 -2 0 -14 -18 -25 -40z"/>
<path d="M7903 3328 c-15 -20 -25 -38 -20 -38 3 0 12 11 21 25 17 26 16 35 -1
13z"/>
<path d="M1925 3260 c9 -16 18 -30 21 -30 2 0 -2 14 -11 30 -9 17 -18 30 -21
30 -2 0 2 -13 11 -30z"/>
<path d="M2380 3260 c12 -16 24 -30 26 -30 3 0 -4 14 -16 30 -12 17 -24 30
-26 30 -3 0 4 -13 16 -30z"/>
<path d="M8310 3270 c-6 -11 -8 -20 -6 -20 3 0 10 9 16 20 6 11 8 20 6 20 -3
0 -10 -9 -16 -20z"/>
<path d="M7830 3220 c-12 -16 -19 -30 -16 -30 2 0 14 14 26 30 12 17 19 30 16
30 -2 0 -14 -13 -26 -30z"/>
<path d="M1960 3200 c6 -11 13 -20 16 -20 2 0 0 9 -6 20 -6 11 -13 20 -16 20
-2 0 0 -9 6 -20z"/>
<path d="M8270 3200 c-6 -11 -8 -20 -6 -20 3 0 10 9 16 20 6 11 8 20 6 20 -3
0 -10 -9 -16 -20z"/>
<path d="M2430 3186 c0 -2 8 -10 18 -17 15 -13 16 -12 3 4 -13 16 -21 21 -21
13z"/>
<path d="M7789 3163 c-13 -16 -12 -17 4 -4 16 13 21 21 13 21 -2 0 -10 -8 -17
-17z"/>
<path d="M2460 3146 c0 -2 8 -10 18 -17 15 -13 16 -12 3 4 -13 16 -21 21 -21
13z"/>
<path d="M7759 3123 c-13 -16 -12 -17 4 -4 9 7 17 15 17 17 0 8 -8 3 -21 -13z"/>
<path d="M8224 3128 c-4 -7 -14 -24 -22 -38 -14 -24 -13 -24 3 -5 20 24 37 55
31 55 -3 0 -8 -6 -12 -12z"/>
<path d="M2037 3079 c10 -17 24 -36 32 -42 8 -7 2 7 -14 31 -32 49 -45 57 -18
11z"/>
<path d="M2490 3106 c0 -2 8 -10 18 -17 15 -13 16 -12 3 4 -13 16 -21 21 -21
13z"/>
<path d="M7729 3083 c-13 -16 -12 -17 4 -4 9 7 17 15 17 17 0 8 -8 3 -21 -13z"/>
<path d="M2535 3050 c10 -11 20 -20 23 -20 3 0 -3 9 -13 20 -10 11 -20 20 -23
20 -3 0 3 -9 13 -20z"/>
<path d="M7684 3028 l-19 -23 23 19 c12 11 22 21 22 23 0 8 -8 2 -26 -19z"/>
<path d="M2585 2990 c10 -11 20 -20 23 -20 3 0 -3 9 -13 20 -10 11 -20 20 -23
20 -3 0 3 -9 13 -20z"/>
<path d="M7634 2968 l-29 -33 33 29 c17 17 32 31 32 33 0 8 -8 1 -36 -29z"/>
<path d="M8120 2970 c-12 -16 -19 -30 -16 -30 2 0 14 14 26 30 12 17 19 30 16
30 -2 0 -14 -13 -26 -30z"/>
<path d="M2120 2960 c12 -16 24 -30 26 -30 3 0 -4 14 -16 30 -12 17 -24 30
-26 30 -3 0 4 -13 16 -30z"/>
<path d="M2640 2925 c13 -14 26 -25 28 -25 3 0 -5 11 -18 25 -13 14 -26 25
-28 25 -3 0 5 -11 18 -25z"/>
<path d="M7565 2888 l-40 -43 43 40 c39 36 47 45 39 45 -2 0 -21 -19 -42 -42z"/>
<path d="M8049 2873 c-23 -32 -36 -53 -28 -46 17 14 83 103 76 103 -3 0 -24
-26 -48 -57z"/>
<path d="M2170 2890 c11 -16 26 -33 32 -36 7 -4 -1 9 -16 29 -34 44 -46 50
-16 7z"/>
<path d="M2780 2775 c52 -52 97 -95 100 -95 2 0 -38 43 -90 95 -52 52 -97 95
-100 95 -2 0 38 -43 90 -95z"/>
<path d="M2225 2820 c10 -11 20 -20 23 -20 3 0 -3 9 -13 20 -10 11 -20 20 -23
20 -3 0 3 -9 13 -20z"/>
<path d="M7936 2728 c-37 -46 -49 -63 -26 -38 48 52 104 120 97 120 -2 0 -34
-37 -71 -82z"/>
<path d="M7440 2755 c-24 -25 -42 -45 -39 -45 3 0 25 20 49 45 24 25 42 45 39
45 -3 0 -25 -20 -49 -45z"/>
<path d="M2275 2760 c50 -65 170 -199 178 -199 7 -1 -60 76 -173 199 l-32 35
27 -35z"/>
<path d="M3848 2693 c90 -2 234 -2 320 0 86 1 13 3 -163 3 -176 0 -247 -2
-157 -3z"/>
<path d="M7315 2638 l-40 -43 43 40 c23 21 42 40 42 42 0 8 -9 0 -45 -39z"/>
<path d="M2900 2667 c0 -2 15 -16 33 -33 l32 -29 -29 33 c-28 30 -36 37 -36
29z"/>
<path d="M7804 2578 c-54 -57 -115 -130 -73 -88 42 42 142 150 138 150 -3 0
-32 -28 -65 -62z"/>
<path d="M3000 2575 c13 -14 26 -25 28 -25 3 0 -5 11 -18 25 -13 14 -26 25
-28 25 -3 0 5 -11 18 -25z"/>
<path d="M7234 2568 l-29 -33 33 29 c17 17 32 31 32 33 0 8 -8 1 -36 -29z"/>
<path d="M2460 2547 c0 -1 35 -36 78 -77 l77 -75 -75 78 c-69 71 -80 82 -80
74z"/>
<path d="M3055 2530 c10 -11 20 -20 23 -20 3 0 -3 9 -13 20 -10 11 -20 20 -23
20 -3 0 3 -9 13 -20z"/>
<path d="M7164 2508 l-19 -23 23 19 c12 11 22 21 22 23 0 8 -8 2 -26 -19z"/>
<path d="M3094 2502 c8 -13 66 -56 66 -49 0 3 -17 17 -37 33 -20 15 -33 23
-29 16z"/>
<path d="M7119 2473 c-13 -16 -12 -17 4 -4 16 13 21 21 13 21 -2 0 -10 -8 -17
-17z"/>
<path d="M7690 2459 c0 -5 5 -7 10 -4 6 3 10 8 10 11 0 2 -4 4 -10 4 -5 0 -10
-5 -10 -11z"/>
<path d="M7079 2443 c-13 -16 -12 -17 4 -4 16 13 21 21 13 21 -2 0 -10 -8 -17
-17z"/>
<path d="M3170 2446 c0 -2 8 -10 18 -17 15 -13 16 -12 3 4 -13 16 -21 21 -21
13z"/>
<path d="M7575 2353 c-55 -53 -73 -74 -40 -46 59 50 154 143 145 143 -3 -1
-50 -44 -105 -97z"/>
<path d="M2665 2350 c21 -22 41 -40 44 -40 3 0 -13 18 -34 40 -21 22 -41 40
-44 40 -3 0 13 -18 34 -40z"/>
<path d="M6955 2354 l-30 -26 33 22 c17 12 32 23 32 26 0 7 -4 5 -35 -22z"/>
<path d="M3330 2336 c0 -3 9 -10 20 -16 11 -6 20 -8 20 -6 0 3 -9 10 -20 16
-11 6 -20 8 -20 6z"/>
<path d="M6889 2309 l-24 -20 28 17 c15 9 27 18 27 20 0 8 -8 4 -31 -17z"/>
<path d="M2745 2280 c10 -11 20 -20 23 -20 3 0 -3 9 -13 20 -10 11 -20 20 -23
20 -3 0 3 -9 13 -20z"/>
<path d="M6834 2274 c-18 -14 -18 -15 4 -4 12 6 22 13 22 15 0 8 -5 6 -26 -11z"/>
<path d="M3430 2276 c0 -3 9 -10 20 -16 11 -6 20 -8 20 -6 0 3 -9 10 -20 16
-11 6 -20 8 -20 6z"/>
<path d="M7435 2232 c-17 -15 -48 -42 -70 -60 -24 -21 -28 -26 -10 -14 33 22
123 101 115 101 -3 0 -19 -12 -35 -27z"/>
<path d="M2830 2211 c43 -39 146 -116 125 -94 -5 6 -46 39 -90 72 -44 34 -60
44 -35 22z"/>
<path d="M3480 2246 c0 -3 9 -10 20 -16 11 -6 20 -8 20 -6 0 3 -9 10 -20 16
-11 6 -20 8 -20 6z"/>
<path d="M6708 2204 c-38 -20 -36 -28 2 -9 17 9 30 18 30 20 0 7 -1 6 -32 -11z"/>
<path d="M3670 2140 c41 -21 80 -39 85 -39 6 0 -24 18 -65 39 -41 21 -79 39
-85 39 -5 0 24 -18 65 -39z"/>
<path d="M7299 2123 c-13 -16 -12 -17 4 -4 16 13 21 21 13 21 -2 0 -10 -8 -17
-17z"/>
<path d="M2970 2106 c0 -2 14 -14 30 -26 17 -12 30 -19 30 -16 0 2 -13 14 -30
26 -16 12 -30 19 -30 16z"/>
<path d="M7245 2084 l-30 -26 33 22 c17 12 32 23 32 26 0 7 -4 5 -35 -22z"/>
<path d="M6370 2040 c-8 -5 -10 -10 -5 -10 6 0 17 5 25 10 8 5 11 10 5 10 -5
0 -17 -5 -25 -10z"/>
<path d="M3074 2031 c7 -11 46 -35 46 -28 0 3 -12 12 -26 22 -15 9 -23 12 -20
6z"/>
<path d="M3940 2020 c8 -5 20 -10 25 -10 6 0 3 5 -5 10 -8 5 -19 10 -25 10 -5
0 -3 -5 5 -10z"/>
<path d="M6290 2010 c-8 -5 -10 -10 -5 -10 6 0 17 5 25 10 8 5 11 10 5 10 -5
0 -17 -5 -25 -10z"/>
<path d="M4020 1992 c8 -5 26 -13 40 -16 17 -5 20 -4 10 2 -8 5 -26 13 -40 16
-17 5 -20 4 -10 -2z"/>
<path d="M6240 1990 c-8 -5 -10 -10 -5 -10 6 0 17 5 25 10 8 5 11 10 5 10 -5
0 -17 -5 -25 -10z"/>
<path d="M7083 1979 c-35 -22 -46 -37 -15 -20 22 13 58 40 52 41 -3 0 -20 -10
-37 -21z"/>
<path d="M3160 1976 c0 -3 9 -10 20 -16 11 -6 20 -8 20 -6 0 3 -9 10 -20 16
-11 6 -20 8 -20 6z"/>
<path d="M6108 1943 c7 -3 16 -2 19 1 4 3 -2 6 -13 5 -11 0 -14 -3 -6 -6z"/>
<path d="M6038 1923 c7 -3 16 -2 19 1 4 3 -2 6 -13 5 -11 0 -14 -3 -6 -6z"/>
<path d="M6984 1914 c-18 -14 -18 -15 4 -4 12 6 22 13 22 15 0 8 -5 6 -26 -11z"/>
<path d="M5975 1910 c-13 -5 -14 -9 -5 -9 8 0 24 4 35 9 13 5 14 9 5 9 -8 0
-24 -4 -35 -9z"/>
<path d="M5918 1893 c6 -2 18 -2 25 0 6 3 1 5 -13 5 -14 0 -19 -2 -12 -5z"/>
<path d="M6934 1884 c-18 -14 -18 -15 4 -4 12 6 22 13 22 15 0 8 -5 6 -26 -11z"/>
<path d="M3310 1886 c0 -3 9 -10 20 -16 11 -6 20 -8 20 -6 0 3 -9 10 -20 16
-11 6 -20 8 -20 6z"/>
<path d="M4368 1883 c7 -3 16 -2 19 1 4 3 -2 6 -13 5 -11 0 -14 -3 -6 -6z"/>
<path d="M5878 1883 c7 -3 16 -2 19 1 4 3 -2 6 -13 5 -11 0 -14 -3 -6 -6z"/>
<path d="M4408 1873 c7 -3 16 -2 19 1 4 3 -2 6 -13 5 -11 0 -14 -3 -6 -6z"/>
<path d="M5838 1873 c7 -3 16 -2 19 1 4 3 -2 6 -13 5 -11 0 -14 -3 -6 -6z"/>
<path d="M4458 1863 c7 -3 16 -2 19 1 4 3 -2 6 -13 5 -11 0 -14 -3 -6 -6z"/>
<path d="M5788 1863 c7 -3 16 -2 19 1 4 3 -2 6 -13 5 -11 0 -14 -3 -6 -6z"/>
<path d="M4508 1853 c7 -3 16 -2 19 1 4 3 -2 6 -13 5 -11 0 -14 -3 -6 -6z"/>
<path d="M5728 1853 c6 -2 18 -2 25 0 6 3 1 5 -13 5 -14 0 -19 -2 -12 -5z"/>
<path d="M6858 1844 c-38 -20 -36 -28 2 -9 17 9 30 18 30 20 0 7 -1 6 -32 -11z"/>
<path d="M4558 1843 c6 -2 18 -2 25 0 6 3 1 5 -13 5 -14 0 -19 -2 -12 -5z"/>
<path d="M5673 1843 c9 -2 23 -2 30 0 6 3 -1 5 -18 5 -16 0 -22 -2 -12 -5z"/>
<path d="M4613 1833 c9 -2 25 -2 35 0 9 3 1 5 -18 5 -19 0 -27 -2 -17 -5z"/>
<path d="M5613 1833 c9 -2 23 -2 30 0 6 3 -1 5 -18 5 -16 0 -22 -2 -12 -5z"/>
<path d="M4683 1823 c9 -2 25 -2 35 0 9 3 1 5 -18 5 -19 0 -27 -2 -17 -5z"/>
<path d="M5538 1823 c12 -2 30 -2 40 0 9 3 -1 5 -23 4 -22 0 -30 -2 -17 -4z"/>
<path d="M7559 1813 c-13 -16 -12 -17 4 -4 16 13 21 21 13 21 -2 0 -10 -8 -17
-17z"/>
<path d="M3440 1815 c0 -7 121 -67 126 -63 2 2 -26 18 -61 36 -36 17 -65 30
-65 27z"/>
<path d="M4758 1813 c12 -2 30 -2 40 0 9 3 -1 5 -23 4 -22 0 -30 -2 -17 -4z"/>
<path d="M5453 1813 c9 -2 25 -2 35 0 9 3 1 5 -18 5 -19 0 -27 -2 -17 -5z"/>
<path d="M4868 1803 c18 -2 45 -2 60 0 15 2 0 4 -33 4 -33 0 -45 -2 -27 -4z"/>
<path d="M5318 1803 c18 -2 45 -2 60 0 15 2 0 4 -33 4 -33 0 -45 -2 -27 -4z"/>
<path d="M6780 1800 c-9 -6 -10 -10 -3 -10 6 0 15 5 18 10 8 12 4 12 -15 0z"/>
<path d="M5058 1793 c34 -2 90 -2 125 0 34 2 6 3 -63 3 -69 0 -97 -1 -62 -3z"/>
<path d="M6720 1770 c-9 -6 -10 -10 -3 -10 6 0 15 5 18 10 8 12 4 12 -15 0z"/>
<path d="M3610 1730 c8 -5 20 -10 25 -10 6 0 3 5 -5 10 -8 5 -19 10 -25 10 -5
0 -3 -5 5 -10z"/>
<path d="M6590 1710 c-8 -5 -10 -10 -5 -10 6 0 17 5 25 10 8 5 11 10 5 10 -5
0 -17 -5 -25 -10z"/>
<path d="M3700 1690 c8 -5 20 -10 25 -10 6 0 3 5 -5 10 -8 5 -19 10 -25 10 -5
0 -3 -5 5 -10z"/>
<path d="M6540 1690 c-8 -5 -10 -10 -5 -10 6 0 17 5 25 10 8 5 11 10 5 10 -5
0 -17 -5 -25 -10z"/>
<path d="M6480 1665 c-14 -8 -20 -14 -15 -14 6 0 21 6 35 14 14 8 21 14 15 14
-5 0 -21 -6 -35 -14z"/>
<path d="M3770 1660 c8 -5 20 -10 25 -10 6 0 3 5 -5 10 -8 5 -19 10 -25 10 -5
0 -3 -5 5 -10z"/>
<path d="M6420 1640 c-8 -5 -10 -10 -5 -10 6 0 17 5 25 10 8 5 11 10 5 10 -5
0 -17 -5 -25 -10z"/>
<path d="M6335 1610 c-13 -6 -15 -9 -5 -9 8 0 22 4 30 9 18 12 2 12 -25 0z"/>
<path d="M6280 1590 c-8 -5 -10 -10 -5 -10 6 0 17 5 25 10 8 5 11 10 5 10 -5
0 -17 -5 -25 -10z"/>
<path d="M3020 1576 c0 -3 9 -10 20 -16 11 -6 20 -8 20 -6 0 3 -9 10 -20 16
-11 6 -20 8 -20 6z"/>
<path d="M4030 1565 c19 -7 42 -13 50 -13 8 0 -1 6 -20 13 -19 7 -42 13 -50
13 -8 0 1 -6 20 -13z"/>
<path d="M6238 1573 c7 -3 16 -2 19 1 4 3 -2 6 -13 5 -11 0 -14 -3 -6 -6z"/>
<path d="M6145 1550 c-13 -5 -14 -9 -5 -9 8 0 24 4 35 9 13 5 14 9 5 9 -8 0
-24 -4 -35 -9z"/>
<path d="M6075 1530 c-13 -5 -14 -9 -5 -9 8 0 24 4 35 9 13 5 14 9 5 9 -8 0
-24 -4 -35 -9z"/>
<path d="M4178 1523 c7 -3 16 -2 19 1 4 3 -2 6 -13 5 -11 0 -14 -3 -6 -6z"/>
<path d="M4218 1513 c7 -3 16 -2 19 1 4 3 -2 6 -13 5 -11 0 -14 -3 -6 -6z"/>
<path d="M6028 1513 c7 -3 16 -2 19 1 4 3 -2 6 -13 5 -11 0 -14 -3 -6 -6z"/>
<path d="M4258 1503 c7 -3 16 -2 19 1 4 3 -2 6 -13 5 -11 0 -14 -3 -6 -6z"/>
<path d="M5978 1503 c6 -2 18 -2 25 0 6 3 1 5 -13 5 -14 0 -19 -2 -12 -5z"/>
<path d="M4298 1493 c7 -3 16 -2 19 1 4 3 -2 6 -13 5 -11 0 -14 -3 -6 -6z"/>
<path d="M5938 1493 c7 -3 16 -2 19 1 4 3 -2 6 -13 5 -11 0 -14 -3 -6 -6z"/>
<path d="M4338 1483 c7 -3 16 -2 19 1 4 3 -2 6 -13 5 -11 0 -14 -3 -6 -6z"/>
<path d="M5888 1483 c6 -2 18 -2 25 0 6 3 1 5 -13 5 -14 0 -19 -2 -12 -5z"/>
<path d="M4378 1473 c6 -2 18 -2 25 0 6 3 1 5 -13 5 -14 0 -19 -2 -12 -5z"/>
<path d="M5838 1473 c6 -2 18 -2 25 0 6 3 1 5 -13 5 -14 0 -19 -2 -12 -5z"/>
<path d="M4428 1463 c6 -2 18 -2 25 0 6 3 1 5 -13 5 -14 0 -19 -2 -12 -5z"/>
<path d="M5788 1463 c6 -2 18 -2 25 0 6 3 1 5 -13 5 -14 0 -19 -2 -12 -5z"/>
<path d="M4478 1453 c6 -2 18 -2 25 0 6 3 1 5 -13 5 -14 0 -19 -2 -12 -5z"/>
<path d="M5733 1453 c9 -2 23 -2 30 0 6 3 -1 5 -18 5 -16 0 -22 -2 -12 -5z"/>
<path d="M4543 1443 c9 -2 23 -2 30 0 6 3 -1 5 -18 5 -16 0 -22 -2 -12 -5z"/>
<path d="M5673 1443 c9 -2 23 -2 30 0 6 3 -1 5 -18 5 -16 0 -22 -2 -12 -5z"/>
<path d="M4603 1433 c9 -2 25 -2 35 0 9 3 1 5 -18 5 -19 0 -27 -2 -17 -5z"/>
<path d="M5598 1433 c12 -2 30 -2 40 0 9 3 -1 5 -23 4 -22 0 -30 -2 -17 -4z"/>
<path d="M4688 1423 c12 -2 30 -2 40 0 9 3 -1 5 -23 4 -22 0 -30 -2 -17 -4z"/>
<path d="M5508 1423 c12 -2 30 -2 40 0 9 3 -1 5 -23 4 -22 0 -30 -2 -17 -4z"/>
<path d="M4783 1413 c15 -2 39 -2 55 0 15 2 2 4 -28 4 -30 0 -43 -2 -27 -4z"/>
<path d="M5393 1413 c15 -2 39 -2 55 0 15 2 2 4 -28 4 -30 0 -43 -2 -27 -4z"/>
<path d="M4998 1403 c68 -2 176 -2 240 0 64 1 9 3 -123 3 -132 0 -185 -2 -117
-3z"/>
<path d="M4228 1083 c7 -3 16 -2 19 1 4 3 -2 6 -13 5 -11 0 -14 -3 -6 -6z"/>
<path d="M5448 1003 c6 -2 18 -2 25 0 6 3 1 5 -13 5 -14 0 -19 -2 -12 -5z"/>
<path d="M5303 993 c15 -2 37 -2 50 0 12 2 0 4 -28 4 -27 0 -38 -2 -22 -4z"/>
</g>
</svg>
